<svg version="1.1" id="Layer_1" xmlns="http://www.w3.org/2000/svg" xmlns:xlink="http://www.w3.org/1999/xlink" x="0px" y="0px" viewBox="0 0 500 500" style="width: 151px;" xml:space="preserve" data-imageid="creative-process-1-79" imageName="Creative Process 1" class="illustrations_image">
<style type="text/css">
	.st0_creative-process-1-79{fill:#68E1FD;}
	.st1_creative-process-1-79{fill:#231F20;}
	.st2_creative-process-1-79{fill:#FFFFFF;}
	.st3_creative-process-1-79{fill:#D1D3D4;}
</style>
<g id="Character_creative-process-1-79">
	<path class="st0_creative-process-1-79 targetColor" d="M340.8,419.6l-6.2-105.4c0,0-61.4-7.9-84.5-7.9s-84.5,7.9-84.5,7.9l-6.2,105.4H340.8z" style="fill: rgb(255, 148, 114);"/>
	<path class="st1_creative-process-1-79" d="M276.4,320.6l-18.7,64.7l-7.7,26.7l-7.7-26.7l-18.7-64.6C236.2,316.8,263.8,316.8,276.4,320.6z"/>
	<path class="st2_creative-process-1-79" d="M202.5,210.7c-0.5,5.5-0.6,11.4-0.6,17.6c0,30.4,21.5,55.1,48.1,55.1s48.1-24.7,48.1-55.1&#10;&#9;&#9;c0-6.1-0.1-12.1-0.6-17.6L202.5,210.7z"/>
	<path class="st1_creative-process-1-79" d="M250,284.1c-26.9,0-48.8-25.1-48.8-55.9c0-5.8,0.1-11.9,0.6-17.6c0-0.4,0.3-0.7,0.7-0.7h95&#10;&#9;&#9;c0.4,0,0.7,0.3,0.7,0.7c0.5,5.7,0.6,11.9,0.6,17.6C298.8,259.1,276.9,284.1,250,284.1z M203.2,211.4c-0.5,5.5-0.5,11.3-0.5,16.8&#10;&#9;&#9;c0,30,21.2,54.4,47.4,54.4s47.4-24.4,47.4-54.4c0-5.5-0.1-11.4-0.5-16.8H203.2z"/>
	<path class="st2_creative-process-1-79" d="M280.4,247.2c2.4-14.7,26.7-18.3,25.5-1c-0.4,5.9-2.3,12-6.5,16.3s-10.9,6.3-16.4,3.8"/>
	<path class="st1_creative-process-1-79" d="M288.1,268.1c-1.9,0-3.7-0.4-5.4-1.1c-0.4-0.2-0.5-0.6-0.4-1c0.2-0.4,0.6-0.5,1-0.4l0,0&#10;&#9;&#9;c4.9,2.2,11.3,0.7,15.5-3.7c4.6-4.7,6-11.2,6.3-15.8c0.4-6.1-2.5-10.1-8-10.7c-6.6-0.8-14.9,3.9-16.1,11.9&#10;&#9;&#9;c-0.1,0.4-0.4,0.7-0.8,0.6c-0.4-0.1-0.7-0.4-0.6-0.8c1.4-8.7,10.5-13.9,17.7-13.1c4.8,0.6,9.8,4.1,9.2,12.2&#10;&#9;&#9;c-0.3,4.9-1.8,11.7-6.7,16.7C296.8,266.2,292.6,268,288.1,268.1z"/>
	<path class="st2_creative-process-1-79" d="M219.6,247.2c-2.4-14.7-26.7-18.3-25.5-1c0.4,5.9,2.3,12,6.5,16.3s10.9,6.3,16.4,3.8"/>
	<path class="st1_creative-process-1-79" d="M211.9,268.1c-4.4-0.1-8.7-1.9-11.8-5.1c-4.9-5-6.4-11.9-6.7-16.7c-0.6-8.2,4.4-11.7,9.2-12.2&#10;&#9;&#9;c7.2-0.8,16.3,4.3,17.7,13.1c0.1,0.4-0.2,0.8-0.6,0.8c-0.4,0.1-0.8-0.2-0.8-0.6c-1.3-7.9-9.5-12.6-16.1-11.9&#10;&#9;&#9;c-5.4,0.6-8.4,4.6-8,10.7c0.3,4.6,1.7,11.1,6.3,15.8c4.3,4.4,10.7,5.9,15.5,3.7c0.4-0.2,0.8,0,1,0.4c0.2,0.4,0,0.8-0.4,1l0,0&#10;&#9;&#9;C215.5,267.7,213.7,268.1,211.9,268.1z"/>
	<path class="st2_creative-process-1-79" d="M223.6,320.6c0,0,6.6,14.4,25.8,14.4s27-14.4,27-14.4l-2.6-56.4h-47.7L223.6,320.6z"/>
	<path class="st1_creative-process-1-79" d="M249.4,335.6c-19.5,0-26.4-14.6-26.5-14.8c0-0.1-0.1-0.2-0.1-0.3l2.6-56.4c0-0.4,0.3-0.7,0.7-0.7h47.7&#10;&#9;&#9;c0.4,0,0.7,0.3,0.7,0.7l2.6,56.4c0,0.1,0,0.3-0.1,0.4C277,321.1,268.8,335.6,249.4,335.6z M224.3,320.4c0.8,1.5,7.6,13.8,25.1,13.8&#10;&#9;&#9;s25.4-12.2,26.3-13.8l-2.5-55.5h-46.3L224.3,320.4z"/>
	<path class="st1_creative-process-1-79" d="M225.7,288.3c3.3,5.3,8.8,9.5,14.4,12.6c9.4,5.2,23.6,11.1,35.1,9.4l-0.5-28.8c-8.2,1.2-17.8,5.9-26.7,5.1&#10;&#9;&#9;c-7.4-0.6-15-1.4-21.8-4.2C225,281.9,224.2,286,225.7,288.3z"/>
	<path class="st1_creative-process-1-79" d="M270.8,311.3c-11.5,0-24.1-5.9-31-9.8c-6.8-3.8-11.7-8.1-14.7-12.9c-1.3-2-1.1-5.4-0.1-6.5&#10;&#9;&#9;c0.3-0.4,0.9-0.6,1.4-0.4c6.8,2.9,14.7,3.6,21.6,4.2c5.4,0.5,11.2-1.2,16.8-2.8c3.2-1,6.5-1.8,9.8-2.3c0.2,0,0.4,0,0.5,0.2&#10;&#9;&#9;c0.2,0.1,0.2,0.3,0.2,0.5l0.5,28.8c0,0.3-0.3,0.6-0.6,0.7C273.8,311.2,272.3,311.3,270.8,311.3z M226,283.1&#10;&#9;&#9;c-0.6,1.6-0.5,3.4,0.3,4.9l0,0c2.9,4.6,7.6,8.8,14.2,12.4c7.6,4.2,22,10.9,34,9.4l-0.5-27.4c-3,0.6-5.9,1.3-8.8,2.2&#10;&#9;&#9;c-5.7,1.6-11.6,3.3-17.3,2.8C240.9,286.7,233,286,226,283.1z M225.9,283L225.9,283z"/>
	<path class="st2_creative-process-1-79" d="M214.4,210.7v47.7c0,18.6,15,33.6,33.6,33.7h4c18.6,0,33.6-15.1,33.6-33.6v-47.7H214.4z"/>
	<path class="st1_creative-process-1-79" d="M285.6,210.7v47.7c0,18.6-15,33.6-33.6,33.7h-4c-18.6,0-33.6-15.1-33.6-33.6v-47.7H285.6 M285.6,209.3h-71.2&#10;&#9;&#9;c-0.8,0-1.4,0.7-1.4,1.4v47.7c0,19.3,15.7,35,35,35.1h4c19.4,0,35.1-15.7,35.1-35.1v-47.7C287.1,209.9,286.4,209.3,285.6,209.3&#10;&#9;&#9;L285.6,209.3z"/>
	<polygon class="st2_creative-process-1-79" points="250,349.8 240.9,342.8 250,335.8 259.1,342.8 &#9;"/>
	<polygon class="st2_creative-process-1-79" points="257.7,385.3 250,411.9 242.3,385.2 246.9,346 247.1,345.2 253,345.2 253.1,346 &#9;"/>
	<path class="st1_creative-process-1-79" d="M297.8,211.5c0,5.9-11.3,11.1-27.7,13.4c-13.3,1.8-26.9,1.8-40.2,0c-16.4-2.3-27.7-7.5-27.7-13.4&#10;&#9;&#9;c0-5.6,10-10.4,24.8-12.9c5.7-1,11.5-1.5,17.4-1.7c1.9-0.1,3.7-0.1,5.6-0.1c1.7,0,3.5,0,5.2,0.1c6,0.2,11.9,0.8,17.8,1.8&#10;&#9;&#9;C287.8,201.1,297.8,206,297.8,211.5z"/>
	<path class="st1_creative-process-1-79" d="M250,227c-6.8,0-13.5-0.4-20.2-1.4c-17.4-2.5-28.3-7.9-28.3-14.1c0-5.8,9.5-10.9,25.4-13.6&#10;&#9;&#9;c5.8-1,11.6-1.5,17.4-1.7c3.5-0.1,7.3-0.1,10.9,0c6,0.2,12,0.8,17.9,1.8c15.9,2.7,25.4,7.8,25.4,13.6c0,6.2-10.8,11.6-28.3,14.1&#10;&#9;&#9;C263.5,226.6,256.8,227,250,227z M250,197.5c-1.9,0-3.8,0-5.6,0.1c-5.8,0.2-11.6,0.8-17.3,1.7c-14.7,2.5-24.2,7.3-24.2,12.3&#10;&#9;&#9;c0,5.3,10.9,10.4,27.1,12.7c13.3,1.8,26.7,1.8,40,0c16.2-2.3,27.1-7.4,27.1-12.7c0-4.9-9.5-9.8-24.2-12.3c-5.9-1-11.8-1.6-17.8-1.7&#10;&#9;&#9;C253.4,197.5,251.7,197.5,250,197.5L250,197.5z"/>
	<path class="st2_creative-process-1-79" d="M248.1,240.9c0,0,7.4,18.8,6.4,21.3s-9.1,2-9.1,2"/>
	<path class="st1_creative-process-1-79" d="M247.2,264.9c-0.8,0-1.5,0-1.9,0c-0.4,0-0.7-0.4-0.7-0.8c0-0.4,0.3-0.7,0.7-0.7c0,0,0,0,0.1,0&#10;&#9;&#9;c3,0.2,7.8-0.2,8.4-1.5s-2.8-11.6-6.4-20.7c-0.1-0.4,0.1-0.8,0.5-0.9c0.3-0.1,0.7,0.1,0.8,0.4c1.2,3.2,7.4,19.2,6.3,21.8&#10;&#9;&#9;C254.3,264.6,249.9,264.9,247.2,264.9z"/>
	<path class="st1_creative-process-1-79" d="M252.4,278.7c-0.9,0-1.8-0.1-2.7-0.1c-7.6-0.8-14.5-5.3-20.5-13.2c-0.2-0.3-0.2-0.8,0.1-1&#10;&#9;&#9;c0.3-0.2,0.8-0.2,1,0.1c5.7,7.6,12.3,11.8,19.5,12.6c10.9,1.2,19.7-6.1,19.8-6.2c0.3-0.3,0.8-0.2,1,0.1s0.2,0.8-0.1,1&#10;&#9;&#9;C270.3,272.3,262.7,278.7,252.4,278.7z"/>
	<ellipse class="st1_creative-process-1-79" cx="234.3" cy="236.5" rx="2" ry="4.7"/>
	<ellipse class="st1_creative-process-1-79" cx="265.7" cy="236.5" rx="2" ry="4.7"/>
	<path class="st2_creative-process-1-79" d="M144.1,208.1c0,0,36.1-15.9,35.1-20.2s-17.5,3.4-17.5,3.4s21.9-39.4,19.2-49.8s-24.7,24.4-34,31.4&#10;&#9;&#9;s-26.7,21.7-26.7,21.7L144.1,208.1z"/>
	<path class="st1_creative-process-1-79" d="M144.1,208.9c-0.1,0-0.2,0-0.4-0.1l-24-13.4c-0.2-0.1-0.4-0.3-0.4-0.6c0-0.2,0.1-0.5,0.2-0.6&#10;&#9;&#9;c0.2-0.1,17.5-14.8,26.7-21.7c3.3-2.5,8.3-8.6,13.5-15c9.8-12,16-19.2,19.6-18.4c1.1,0.3,1.9,1.3,2.1,2.4&#10;&#9;&#9;c2.4,9.3-13.9,40.3-18.2,48.4c3.9-1.7,12.4-5,15.4-3.5c0.6,0.3,1.1,0.8,1.2,1.5c1.1,4.5-26.9,17.2-35.5,21&#10;&#9;&#9;C144.3,208.9,144.2,208.9,144.1,208.9z M121.3,194.6l22.8,12.8c19.4-8.6,34.8-17.2,34.3-19.2c-0.1-0.2-0.2-0.4-0.4-0.5&#10;&#9;&#9;c-2.4-1.1-11.1,2.1-16.1,4.4c-0.4,0.2-0.8,0-1-0.3c-0.1-0.2-0.1-0.5,0-0.7c0.2-0.4,21.7-39.3,19.1-49.2c-0.3-1.2-0.8-1.3-1-1.3&#10;&#9;&#9;c-3-0.7-11.4,9.6-18.2,17.9c-5.3,6.5-10.3,12.6-13.8,15.2C139.1,179.6,124.9,191.6,121.3,194.6z"/>
	<polygon class="st1_creative-process-1-79" points="139.9,221.4 149.2,210.3 125.2,188 100.5,208.1 &#9;"/>
	<path class="st0_creative-process-1-79 targetColor" d="M215.6,308.4c0,0-102.4-9-106.4-18.9s37.6-68.2,37.6-68.2l-31.7-31.7c0,0-107.1,94.6-82,135.7&#10;&#9;&#9;s149.2,47.9,149.2,47.9L215.6,308.4z" style="fill: rgb(255, 148, 114);"/>
	<path class="st2_creative-process-1-79" d="M355.9,208.1c0,0-36.1-15.9-35.1-20.2s17.5,3.4,17.5,3.4s-21.9-39.4-19.2-49.8s24.7,24.4,34.1,31.4&#10;&#9;&#9;s26.7,21.7,26.7,21.7L355.9,208.1z"/>
	<path class="st1_creative-process-1-79" d="M355.9,208.9c-0.1,0-0.2,0-0.3-0.1c-8.6-3.8-36.5-16.5-35.5-21c0.1-0.7,0.6-1.2,1.2-1.5&#10;&#9;&#9;c3-1.5,11.4,1.8,15.4,3.5c-4.4-8.1-20.6-39.1-18.2-48.4c0.2-1.1,1-2.1,2.1-2.4c3.6-0.8,9.8,6.4,19.6,18.4&#10;&#9;&#9;c5.2,6.4,10.2,12.5,13.5,15c9.3,6.9,26.6,21.6,26.7,21.7c0.2,0.2,0.3,0.4,0.2,0.6c0,0.2-0.2,0.4-0.4,0.6l-24,13.4&#10;&#9;&#9;C356.1,208.8,356,208.9,355.9,208.9z M323.3,187.4c-0.5,0-0.9,0.1-1.4,0.2c-0.2,0.1-0.4,0.3-0.4,0.5c-0.5,2,14.9,10.6,34.3,19.2&#10;&#9;&#9;l22.8-12.8c-3.5-3-17.8-14.9-25.9-21c-3.5-2.6-8.5-8.7-13.8-15.2c-6.8-8.3-15.2-18.6-18.2-17.9c-0.2,0-0.7,0.1-1,1.3&#10;&#9;&#9;c-2.6,10,18.9,48.8,19.1,49.2c0.2,0.3,0.1,0.8-0.3,1c-0.2,0.1-0.5,0.1-0.7,0C333.8,190,326.8,187.4,323.3,187.4z"/>
	<polygon class="st1_creative-process-1-79" points="360.1,221.4 350.8,210.3 374.8,188 399.5,208.1 &#9;"/>
	<path class="st0_creative-process-1-79 targetColor" d="M284.5,308.4c0,0,102.4-9,106.4-18.9s-37.6-68.2-37.6-68.2l31.7-31.6c0,0,107.1,94.6,82,135.7&#10;&#9;&#9;s-149.2,47.9-149.2,47.9L284.5,308.4z" style="fill: rgb(255, 148, 114);"/>
	<path class="st1_creative-process-1-79" d="M159.7,409.5c1.1-28.1,2.4-56.1,4-83.6"/>
	<path class="st1_creative-process-1-79" d="M159.7,410.1L159.7,410.1c-0.4,0-0.7-0.3-0.7-0.7c0,0,0,0,0,0c1.2-29.3,2.5-57.4,4-83.6c0-0.4,0.3-0.7,0.7-0.7&#10;&#9;&#9;l0,0c0.4,0,0.7,0.4,0.6,0.7c-1.5,26.2-2.9,54.3-4,83.5C160.4,409.9,160.1,410.1,159.7,410.1z"/>
	<path class="st1_creative-process-1-79" d="M340.3,411.9c0,0-6.5-91.6-6.5-90.2"/>
	<path class="st1_creative-process-1-79" d="M340.3,412.6c-0.4,0-0.7-0.3-0.7-0.6c-2.1-30.3-6.2-87.8-6.5-90.1c0,0,0-0.1,0-0.1c0-0.4,0.3-0.7,0.7-0.7&#10;&#9;&#9;c0.4,0,0.5,0,0.7,0.7l0,0c0,0.1,0,0.1,0,0.2c0.1,0.6,0.2,1.8,0.3,3.6c0.2,2.5,0.4,6,0.7,10.2c0.6,8.5,1.4,19.7,2.2,31&#10;&#9;&#9;c1.6,22.6,3.2,45.1,3.2,45.1C341,412.2,340.7,412.6,340.3,412.6L340.3,412.6z"/>
</g>
<g id="Light_creative-process-1-79">
	<path class="st3_creative-process-1-79" d="M304.7,132.6c-0.2,0-0.4-0.1-0.5-0.2c-0.3-0.3-0.2-0.7,0.1-1l19.4-16.6c0.3-0.3,0.7-0.2,1,0.1&#10;&#9;&#9;c0.3,0.3,0.2,0.7-0.1,1c0,0,0,0,0,0l-19.4,16.6C305,132.5,304.9,132.6,304.7,132.6z"/>
	<path class="st3_creative-process-1-79" d="M281.6,114.1c-0.4,0-0.7-0.3-0.7-0.7c0-0.1,0-0.2,0.1-0.4l9-14.3c0.2-0.3,0.7-0.4,1-0.1&#10;&#9;&#9;c0.3,0.2,0.3,0.6,0.2,0.9l-9,14.3C282.1,114,281.9,114.1,281.6,114.1z"/>
	<path class="st3_creative-process-1-79" d="M195.3,132.6c-0.2,0-0.3-0.1-0.4-0.2l-19.4-16.6c-0.3-0.2-0.3-0.7-0.1-1c0,0,0,0,0,0c0.3-0.3,0.7-0.3,1-0.1&#10;&#9;&#9;l19.4,16.6c0.3,0.3,0.3,0.7,0.1,1C195.7,132.5,195.5,132.6,195.3,132.6z"/>
	<path class="st3_creative-process-1-79" d="M218.4,114.1c-0.2,0-0.5-0.1-0.6-0.3l-9-14.3c-0.2-0.3,0-0.8,0.3-0.9c0.3-0.1,0.7-0.1,0.9,0.2L219,113&#10;&#9;&#9;c0.2,0.3,0.1,0.8-0.2,1C218.7,114,218.5,114.1,218.4,114.1L218.4,114.1z"/>
	<path class="st3_creative-process-1-79" d="M250,105.8c-0.4,0-0.7-0.3-0.7-0.7v-24c0-0.4,0.3-0.7,0.7-0.7c0.4,0,0.7,0.3,0.7,0.7v24&#10;&#9;&#9;C250.7,105.5,250.4,105.8,250,105.8z"/>
</g>
<g id="Lamp_creative-process-1-79">
	<path class="st0_creative-process-1-79 targetColor" d="M285.7,181.2L285.7,181.2c13.6-19.7,8.7-46.7-11-60.3s-46.7-8.7-60.3,11c-10.3,14.9-10.3,34.5,0,49.4l0,0v0.1&#10;&#9;&#9;c1.1,1.6,2.3,3.1,3.6,4.5c1.8,2.5,6.7,5.7,7.6,8.6c1.5,4.7,3.3,9.3,5.4,13.7h38c2.1-4.5,3.9-9,5.4-13.7c0.9-3,5.8-6.1,7.6-8.6&#10;&#9;&#9;c1.3-1.4,2.5-2.9,3.6-4.5L285.7,181.2z" style="fill: rgb(255, 148, 114);"/>
	<path class="st1_creative-process-1-79" d="M254.2,211.5L254.2,211.5c-0.4,0-0.7-0.4-0.7-0.7c0,0,0,0,0,0c0.1-1.4,1.4-26.2,4.3-43.4&#10;&#9;&#9;c-5.4,0.3-10.8,0.3-16.2-0.1c4,17.9,3.8,41.5,3.8,43.1c0,0.4-0.3,0.7-0.7,0.7c-0.4,0-0.7-0.3-0.7-0.7c0,0,0,0,0,0&#10;&#9;&#9;c0-10.2-0.6-20.5-1.7-30.6c-0.6-4.7-1.3-8.8-2.1-12.5c-14.1-1.1-18.8-8.8-18.4-13.7c0.2-3.8,3.2-6.3,7.1-6.1&#10;&#9;&#9;c6.1,0.4,10,8.3,12.4,18.4c5.6,0.4,11.2,0.5,16.8,0.1c1-5.6,2.1-10.2,3.5-12.7c3.1-5.9,7.5-9.1,11.4-8.2c3.2,0.7,5.1,4,5.3,9&#10;&#9;&#9;c0.2,2.9-0.9,5.8-3,7.8c-3,2.9-8.3,4.7-16.1,5.4c-2.9,17.4-4.3,43.2-4.4,43.6C254.9,211.2,254.6,211.5,254.2,211.5z M271.8,146.2&#10;&#9;&#9;c-2.6,0-6.2,2.2-9,7.6c-1.2,2.4-2.3,6.7-3.3,12c7.2-0.7,12.1-2.3,14.8-5c1.8-1.8,2.8-4.2,2.5-6.8c-0.2-4.3-1.7-7.1-4.2-7.7&#10;&#9;&#9;C272.4,146.3,272.1,146.3,271.8,146.2z M228.3,148.7c-2.7-0.2-5,1.9-5.2,4.6c0,0.1,0,0.1,0,0.2c-0.3,4.3,4,11,16.7,12.2&#10;&#9;&#9;c-2.6-10.9-6.4-16.7-11.1-17L228.3,148.7z"/>
	<path class="st2_creative-process-1-79" d="M231.5,208.1h37c0.9,0,1.7,0.7,1.7,1.7v2.9c0,0.9-0.7,1.7-1.7,1.7h-37c-0.9,0-1.7-0.7-1.7-1.7v-2.9&#10;&#9;&#9;C229.8,208.9,230.6,208.1,231.5,208.1z"/>
	<path class="st1_creative-process-1-79" d="M267.8,215.1h-35.7c-1.7,0-3-1.3-3-3v-1.6c0-1.7,1.3-3,3-3h35.7c1.7,0,3,1.3,3,3v1.6&#10;&#9;&#9;C270.8,213.7,269.5,215.1,267.8,215.1z M232.2,208.9c-0.9,0-1.6,0.7-1.6,1.6c0,0,0,0,0,0v1.6c0,0.9,0.7,1.6,1.6,1.6c0,0,0,0,0,0&#10;&#9;&#9;h35.7c0.9,0,1.6-0.7,1.6-1.6c0,0,0,0,0,0v-1.6c0-0.9-0.7-1.6-1.6-1.6l0,0H232.2z"/>
	<path class="st2_creative-process-1-79" d="M231.5,214.4h37c0.9,0,1.7,0.7,1.7,1.7v2.9c0,0.9-0.7,1.7-1.7,1.7h-37c-0.9,0-1.7-0.7-1.7-1.7V216&#10;&#9;&#9;C229.8,215.1,230.6,214.4,231.5,214.4z"/>
	<path class="st1_creative-process-1-79" d="M267.8,221.3h-35.7c-1.7,0-3-1.3-3-3v-1.6c0-1.7,1.3-3,3-3h35.7c1.7,0,3,1.3,3,3v1.6&#10;&#9;&#9;C270.8,220,269.5,221.3,267.8,221.3z M232.2,215.1c-0.9,0-1.6,0.7-1.6,1.6c0,0,0,0,0,0v1.6c0,0.9,0.7,1.6,1.6,1.6c0,0,0,0,0,0h35.7&#10;&#9;&#9;c0.9,0,1.6-0.7,1.6-1.6c0,0,0,0,0,0v-1.6c0-0.9-0.7-1.6-1.6-1.6l0,0H232.2z"/>
	<path class="st2_creative-process-1-79" d="M270.2,222.9v1.6c0,0.1,0,0.3,0,0.4c-13.3,1.8-26.9,1.8-40.2,0c0-0.1,0-0.3,0-0.4v-1.6c0-1.3,1-2.3,2.3-2.3&#10;&#9;&#9;h35.7C269.1,220.6,270.2,221.7,270.2,222.9z"/>
	<path class="st1_creative-process-1-79" d="M250,227c-6.8,0-13.5-0.4-20.2-1.4c-0.3,0-0.5-0.2-0.6-0.5c0-0.2-0.1-0.4-0.1-0.6v-1.6c0-1.7,1.3-3,3-3h35.7&#10;&#9;&#9;c1.7,0,3,1.3,3,3v1.6c0,0.2,0,0.4-0.1,0.6c-0.1,0.3-0.3,0.5-0.6,0.5C263.5,226.6,256.7,227,250,227z M230.5,224.3&#10;&#9;&#9;c12.9,1.7,26,1.7,38.9,0v-1.4c0-0.9-0.7-1.6-1.6-1.6l0,0h-35.7c-0.9,0-1.6,0.7-1.6,1.6c0,0,0,0,0,0L230.5,224.3z M270.1,224.9&#10;&#9;&#9;L270.1,224.9z"/>
</g>
</svg>