<svg version="1.1" id="Layer_1" xmlns="http://www.w3.org/2000/svg" xmlns:xlink="http://www.w3.org/1999/xlink" x="0px" y="0px" viewBox="0 0 500 500" style="width: 151px;" xml:space="preserve" data-imageid="facetime-3-68" imageName="Facetime 3" class="illustrations_image">
<style type="text/css">
	.st0_facetime-3-68{fill:#FFFFFF;}
	.st1_facetime-3-68{fill:#231F20;}
	.st2_facetime-3-68{fill:#D1D3D4;}
	.st3_facetime-3-68{fill:#68E1FD;}
</style>
<g id="computer_screen_facetime-3-68">
	<path class="st0_facetime-3-68" d="M236.5,152.9H444c8.5,0,15.3,6.9,15.3,15.3v134.5c0,8.5-6.9,15.3-15.3,15.3H236.5c-8.5,0-15.3-6.9-15.3-15.3&#10;&#9;&#9;V168.2C221.2,159.7,228,152.9,236.5,152.9z"/>
	<path class="st1_facetime-3-68" d="M444,318.7H236.5c-8.8,0-16-7.2-16-16V168.2c0-8.8,7.2-16,16-16H444c8.8,0,16,7.2,16,16v134.5&#10;&#9;&#9;C460,311.5,452.9,318.7,444,318.7C444,318.7,444,318.7,444,318.7z M236.5,153.6c-8.1,0-14.6,6.5-14.6,14.6v134.5&#10;&#9;&#9;c0,8.1,6.5,14.6,14.6,14.6H444c8.1,0,14.6-6.5,14.6-14.6V168.2c0-8.1-6.5-14.6-14.6-14.6H236.5z"/>
	<rect x="268.4" y="185.3" class="st0_facetime-3-68" width="143.7" height="110.2"/>
	<path class="st2_facetime-3-68" d="M412.1,296.4H268.4c-0.4,0-0.8-0.3-0.8-0.8c0,0,0,0,0,0V185.3c0-0.4,0.3-0.8,0.8-0.8h143.7&#10;&#9;&#9;c0.4,0,0.8,0.3,0.8,0.8v110.2C412.9,296,412.5,296.3,412.1,296.4C412.1,296.4,412.1,296.4,412.1,296.4z M269.2,294.8h142.1V186.1&#10;&#9;&#9;H269.2V294.8z"/>
	<path class="st0_facetime-3-68" d="M380.8,346.7l-14.6-28.9h-57.6l17.4,34.4h-21.6c-2,0-3.6,1.6-3.6,3.6l0,0l0,0c0,2,1.6,3.6,3.6,3.6l68.6,0.1&#10;&#9;&#9;c4.8,0,8.8-3.9,8.8-8.7C381.8,349.3,381.4,348,380.8,346.7z"/>
	<path class="st1_facetime-3-68" d="M373,360.2L373,360.2l-68.6-0.1c-2.4,0-4.3-1.9-4.3-4.3s1.9-4.3,4.3-4.3h20.4L308,318.1&#10;&#9;&#9;c-0.1-0.2-0.1-0.5,0-0.7c0.1-0.2,0.4-0.3,0.6-0.3h57.6c0.3,0,0.5,0.2,0.6,0.4l14.6,29c2.3,4.7,0.4,10.4-4.3,12.7&#10;&#9;&#9;C375.9,359.8,374.5,360.2,373,360.2z M304.4,352.9c-1.6,0-2.9,1.3-2.9,2.9c0,1.6,1.3,2.9,2.9,2.9l68.6,0.1l0,0c4.4,0,8-3.6,8-8.1&#10;&#9;&#9;c0-1.3-0.3-2.5-0.9-3.6l0,0l-14.4-28.6h-56l16.9,33.4c0.2,0.4,0,0.8-0.4,0.9c-0.1,0-0.2,0.1-0.3,0.1L304.4,352.9z"/>
	<path class="st1_facetime-3-68" d="M373.6,352.9h-69.1c-0.4,0-0.7-0.4-0.6-0.8c0-0.3,0.3-0.6,0.6-0.6h69.1c0.4,0,0.8,0.2,0.8,0.6&#10;&#9;&#9;c0,0.4-0.2,0.8-0.6,0.8C373.7,352.9,373.6,352.9,373.6,352.9z"/>
	<path class="st2_facetime-3-68" d="M454.2,176.4H226c-0.4,0-0.7-0.4-0.7-0.9c0-0.4,0.3-0.7,0.7-0.7h228.2c0.4,0,0.7,0.4,0.7,0.9&#10;&#9;&#9;C454.9,176.1,454.6,176.4,454.2,176.4z"/>
	<circle class="st3_facetime-3-68 targetColor" cx="320.9" cy="306" r="3.6" style="fill: rgb(255, 148, 114);"/>
	<circle class="st2_facetime-3-68" cx="340.2" cy="306" r="3.6"/>
	<circle class="st2_facetime-3-68" cx="359.6" cy="306" r="3.6"/>
	<path class="st2_facetime-3-68" d="M343.6,165.6H328c-0.4,0-0.8-0.4-0.8-0.8c0-0.4,0.3-0.8,0.8-0.8h15.6c0.4,0,0.8,0.4,0.8,0.8&#10;&#9;&#9;C344.4,165.3,344,165.6,343.6,165.6L343.6,165.6z"/>
</g>
<g id="keyboard_facetime-3-68">
	<rect x="191.2" y="348.6" class="st0_facetime-3-68" width="103" height="11"/>
	<path class="st1_facetime-3-68" d="M294.2,360.3h-103c-0.4,0-0.7-0.3-0.7-0.7c0,0,0,0,0,0v-11c0-0.4,0.3-0.7,0.7-0.7c0,0,0,0,0,0h103&#10;&#9;&#9;c0.4,0,0.7,0.3,0.7,0.7c0,0,0,0,0,0v11C294.9,360,294.6,360.3,294.2,360.3C294.2,360.3,294.2,360.3,294.2,360.3z M191.9,358.9&#10;&#9;&#9;h101.6v-9.5H191.9V358.9z"/>
</g>
<g id="mouse_facetime-3-68">
	<circle class="st0_facetime-3-68" cx="428.2" cy="346.5" r="6.1"/>
	<path class="st2_facetime-3-68" d="M428.2,353.4c-3.8,0-6.9-3.1-6.9-6.9s3.1-6.9,6.9-6.9s6.9,3.1,6.9,6.9c0,0,0,0,0,0&#10;&#9;&#9;C435.1,350.3,432,353.4,428.2,353.4z M428.2,341.1c-3,0-5.4,2.4-5.4,5.4s2.4,5.4,5.4,5.4c3,0,5.4-2.4,5.4-5.4c0,0,0,0,0,0&#10;&#9;&#9;C433.6,343.6,431.2,341.2,428.2,341.1z"/>
	<path class="st0_facetime-3-68" d="M395.4,360.9c0,0-4.2-6.3-0.8-12.6s11.7-8.5,20.8-7.5s23.2,6.7,25.3,12.1c1.4,3.5-4.4,7.5-4.4,7.5L395.4,360.9&#10;&#9;&#9;z"/>
	<path class="st2_facetime-3-68" d="M395.4,361.7c-0.3,0-0.5-0.1-0.6-0.4c-0.2-0.3-4.4-6.8-0.8-13.4c3.4-6.1,11.4-9.1,21.6-7.9&#10;&#9;&#9;c8.8,1,23.6,6.6,26,12.6c1.6,4-4.4,8.2-4.6,8.4c-0.1,0.1-0.3,0.1-0.4,0.1L395.4,361.7L395.4,361.7z M411.3,341.4&#10;&#9;&#9;c-7.6,0-13.4,2.6-16,7.3c-2.7,5-0.3,10.1,0.5,11.4l40.4-0.4c1.5-1.1,4.8-4.1,3.9-6.4c-1.9-4.9-15.4-10.6-24.7-11.7&#10;&#9;&#9;C414,341.4,412.6,341.4,411.3,341.4z"/>
	<path class="st0_facetime-3-68" d="M407.4,340.7c0,0,16.6,2,10.9,11.7"/>
	<path class="st2_facetime-3-68" d="M418.3,353.1c-0.4,0-0.8-0.3-0.8-0.8c0-0.1,0-0.3,0.1-0.4c1.2-2,1.4-3.7,0.6-5.2c-2.1-4.2-10.9-5.3-11-5.3&#10;&#9;&#9;c-0.4,0-0.7-0.4-0.7-0.9c0.1-0.4,0.4-0.7,0.9-0.7c0.4,0,9.8,1.2,12.2,6.1c1,2,0.8,4.2-0.7,6.7C418.9,353,418.6,353.1,418.3,353.1z"/>
</g>
<g id="desk_facetime-3-68">
	<path class="st2_facetime-3-68" d="M466.6,396.1c-0.4,0-0.8-0.3-0.8-0.8c0,0,0,0,0,0v-18.6H54v18.6c0,0.4-0.3,0.8-0.8,0.8c-0.4,0-0.8-0.3-0.8-0.8&#10;&#9;&#9;V376c0-0.4,0.3-0.8,0.8-0.8h413.4c0.4,0,0.8,0.3,0.8,0.8v19.4C467.4,395.8,467,396.2,466.6,396.1z"/>
	<path class="st2_facetime-3-68" d="M485.3,396.1c-0.4,0-0.8-0.3-0.8-0.8c0,0,0,0,0,0v-33.7H37v33.7c0,0.4-0.3,0.8-0.7,0.9c-0.4,0-0.8-0.3-0.9-0.7&#10;&#9;&#9;c0-0.1,0-0.1,0-0.2v-34.4c0-0.4,0.3-0.8,0.8-0.8h449.1c0.4,0,0.8,0.3,0.8,0.8v34.5C486.1,395.8,485.7,396.1,485.3,396.1&#10;&#9;&#9;C485.3,396.1,485.3,396.1,485.3,396.1z"/>
</g>
<g id="character_female_facetime-3-68">
	<path class="st0_facetime-3-68" d="M239.3,345c0,0,10.1,8.6,17.7,4.6s9.8-8.4,9.8-8.4s2.6,11.3,5.5,8.2s-0.2-6-0.2-6s5.3,8.4,5.8,3.8&#10;&#9;&#9;s-3.1-9.4-3.1-9.4s15.6,11.5,14.9,4.6s-14.4-15.8-24.7-15.8s-29.5,5.5-29.5,5.5"/>
	<path class="st1_facetime-3-68" d="M252.4,351.5c-6.7,0-13.3-5.5-13.7-5.9c-0.3-0.3-0.4-0.8-0.1-1.1c0.3-0.3,0.8-0.4,1.1-0.1c0,0,0,0,0,0&#10;&#9;&#9;c0.1,0.1,9.8,8.2,16.9,4.5c7.3-3.9,9.5-8,9.5-8.1c0.1-0.3,0.5-0.5,0.8-0.4c0.3,0,0.6,0.3,0.7,0.6c0.9,3.6,2.5,7.8,3.6,8.1&#10;&#9;&#9;c0.1,0,0.2,0.1,0.5-0.3c0.9-0.8,1.2-2.1,0.8-3.3c-0.4-0.6-0.8-1.2-1.2-1.7c-0.2-0.4-0.2-0.8,0.2-1.1c0.3-0.2,0.7-0.2,1,0.1&#10;&#9;&#9;c0.6,0.5,1,1.2,1.3,1.9c1.2,1.7,2.5,3,3,3.1c0,0,0.1-0.2,0.1-0.6c0.4-4.2-2.9-8.8-3-8.8c-0.3-0.3-0.2-0.8,0.1-1.1&#10;&#9;&#9;c0.3-0.2,0.7-0.2,1,0c4.5,3.3,11.6,7.5,13.3,6.5c0.3-0.1,0.4-0.6,0.3-1.2c-0.7-6.6-14.1-15.1-23.9-15.1c-10.1,0-29.1,5.4-29.3,5.5&#10;&#9;&#9;c-0.4,0.1-0.9-0.1-1-0.5c0,0,0,0,0,0c-0.1-0.4,0.1-0.8,0.5-1c0,0,0,0,0.1,0c0.8-0.2,19.4-5.5,29.7-5.5c10.7,0,24.7,9.1,25.5,16.5&#10;&#9;&#9;c0.2,1.7-0.5,2.4-1.1,2.8c-2.4,1.4-8.3-2.1-12.1-4.6c1.1,2.1,1.6,4.4,1.4,6.8c-0.1,1.2-0.6,1.8-1.3,2c-0.9,0.2-2-0.6-3.1-1.8&#10;&#9;&#9;c-0.2,0.9-0.7,1.7-1.3,2.4c-0.5,0.6-1.3,0.9-2.1,0.7c-2-0.5-3.6-4.8-4.3-7.5c-2.5,3-5.6,5.5-9.1,7.2&#10;&#9;&#9;C255.9,351,254.2,351.4,252.4,351.5z"/>
	<path class="st3_facetime-3-68 targetColor" d="M194.9,414.3c0,0-18.9-33.8-16.8-71.9s18.7-53.2,6.5-90.7s-34.4-36.8-65.2-18.2c-39.7,24-68.7,120-50,184&#10;&#9;&#9;C69.5,417.6,127,433.9,194.9,414.3z" style="fill: rgb(255, 148, 114);"/>
	<path class="st3_facetime-3-68 targetColor" d="M141.2,261.6c0,1.9-19.7,95-6.7,103.6s107.9-11,107.9-11l-1-25.9l-56.1-6.3c0,0,15.8-70.5-12-89.2&#10;&#9;&#9;S141.2,261.6,141.2,261.6z" style="fill: rgb(255, 148, 114);"/>
	<path class="st1_facetime-3-68" d="M149.7,370.4c-10.3,0-20.5-2.3-24.5-10.2c-9.2-17.8,15.7-112.1,16.7-116.2c0.1-0.4,0.5-0.7,1-0.6c0,0,0,0,0,0&#10;&#9;&#9;c0.4,0.1,0.7,0.5,0.6,0.9c0,0,0,0,0,0.1c-0.2,1-25.7,97.8-16.8,115c8.7,17,50,5.5,50.4,5.4c0.4-0.1,0.9,0.1,1,0.5c0,0,0,0,0,0&#10;&#9;&#9;c0.1,0.4-0.1,0.9-0.5,1c0,0,0,0,0,0C176.4,366.7,162.9,370.4,149.7,370.4z"/>
	<path class="st1_facetime-3-68" d="M185.3,322.8L185.3,322.8c-2.3-0.1-14.1-0.7-15.1-4.9c-1-4,12.8-44.3,14.4-48.9c0.1-0.4,0.6-0.6,1-0.5&#10;&#9;&#9;c0.4,0.1,0.6,0.6,0.5,1c-5.9,17.2-15,45.4-14.4,48c0.6,2.2,8.3,3.5,13.7,3.7c0.4,0,0.7,0.4,0.7,0.9&#10;&#9;&#9;C186.1,322.4,185.8,322.7,185.3,322.8L185.3,322.8z"/>
	<path class="st0_facetime-3-68" d="M174.2,230.1l3.9-8.3c0,0,6.5,4.7,13.3-5.8s8.3-50.7,8.3-50.7l-18.4,1.4l-1.1,14c0,0-2.5-11.5-9.7-4&#10;&#9;&#9;s4.3,22.7,4.3,22.7l-9.4,20.5"/>
	<path class="st1_facetime-3-68" d="M174.2,230.9c-0.1,0-0.2,0-0.3-0.1c-0.4-0.2-0.5-0.6-0.4-1l4-8.3c0.1-0.2,0.3-0.4,0.5-0.4&#10;&#9;&#9;c0.2-0.1,0.5,0,0.6,0.1c1.3,0.8,2.9,1.1,4.5,0.8c2.7-0.5,5.3-2.6,7.7-6.3c6.1-9.3,7.9-43.5,8.1-49.4l-16.8,1.3l-1,13.4&#10;&#9;&#9;c0,0.4-0.3,0.7-0.7,0.7c-0.4,0-0.7-0.2-0.8-0.6c-0.3-1.4-1.6-5.2-3.8-5.8c-1.3-0.4-2.8,0.4-4.6,2.2c-6.6,7,4.3,21.5,4.4,21.6&#10;&#9;&#9;c0.2,0.2,0.2,0.5,0.1,0.8l-9.4,20.5c-0.2,0.4-0.6,0.6-1,0.4c-0.4-0.2-0.6-0.6-0.4-1l0,0l9.1-20.1c-1.8-2.5-11-16-4-23.3&#10;&#9;&#9;c2.2-2.3,4.3-3.2,6.1-2.7c1.6,0.6,3,1.9,3.6,3.5l0.8-10.4c0-0.4,0.3-0.7,0.7-0.7l18.4-1.4c0.2,0,0.4,0.1,0.6,0.2&#10;&#9;&#9;c0.2,0.2,0.2,0.4,0.2,0.6c-0.1,1.6-1.5,40.6-8.4,51.1c-2.7,4.1-5.6,6.4-8.8,7c-1.6,0.3-3.3,0.1-4.8-0.6l-3.6,7.5&#10;&#9;&#9;C174.8,230.7,174.5,230.9,174.2,230.9z"/>
	<path class="st0_facetime-3-68" d="M196,185.7c0,0,6.8,15.6,4.8,17.2s-7.2,0.4-7.2,0.4"/>
	<path class="st1_facetime-3-68" d="M197.3,204.5c-1.3,0-2.6-0.2-3.9-0.4c-0.4-0.1-0.7-0.5-0.6-0.9s0.5-0.7,0.9-0.6c1.9,0.4,5.3,0.8,6.5-0.2&#10;&#9;&#9;c0.8-1.1-2-9.3-5-16.3c-0.2-0.4,0-0.8,0.4-1c0.4-0.1,0.8,0,1,0.4c2.6,6,6.7,16.4,4.6,18.1C200.1,204.3,198.7,204.6,197.3,204.5z"/>
	<ellipse class="st1_facetime-3-68" cx="190.6" cy="179.2" rx="1.4" ry="3.9"/>
	<path class="st1_facetime-3-68" d="M53.2,321.4h-0.2c-10.2-2.4-19.4-10.2-24.6-20.9c-16.4-33.6,6.6-67.6,34.8-85c3.5-2.2,7.2-4.3,10.8-6.4&#10;&#9;&#9;c14.6-8.5,29.7-17.2,39.1-31.1c3-4.6,5.6-9.5,7.9-14.5c1.9-4.1,4-8.2,6.4-12.1c7.6-12.5,19.1-19.4,31.7-18.9&#10;&#9;&#9;c21.9,0.8,37.7,13.7,41.9,25.9c0.1,0.4-0.1,0.9-0.5,1s-0.9-0.1-1-0.5c-5.2-15.4-24.7-24.3-40.4-24.9c-12-0.4-23,6.2-30.3,18.1&#10;&#9;&#9;c-2.3,3.8-4.3,8-6.3,12c-2.3,5.1-5,10-8,14.7c-9.6,14.2-24.9,23-39.6,31.6c-3.6,2.1-7.2,4.2-10.8,6.4c-27.7,17-50.2,50.2-34.2,83&#10;&#9;&#9;c5,10.3,13.8,17.8,23.6,20.1c0.4,0.1,0.7,0.6,0.5,1C53.9,321.1,53.6,321.4,53.2,321.4L53.2,321.4z"/>
	<path class="st1_facetime-3-68" d="M189.7,216c-0.5,0-1-0.1-1.5-0.4c-2.5-1.3-1-7.3-0.6-8.5c0.1-0.4,0.5-0.7,1-0.5c0.1,0,0.1,0,0.2,0.1l5.6,2.9&#10;&#9;&#9;c0.4,0.2,0.5,0.7,0.3,1.1c-0.2,0.4-0.7,0.5-1.1,0.3l0,0l-4.8-2.5c-0.6,2.6-0.7,5.3,0.1,5.8c0.4,0.2,0.8,0.3,1.2,0.1&#10;&#9;&#9;c0.9-0.5,1.7-1.2,2.1-2.1c0.2-0.4,0.7-0.5,1-0.3c0,0,0,0,0,0c0.4,0.2,0.5,0.6,0.4,1c-0.6,1.3-1.7,2.3-3,2.9&#10;&#9;&#9;C190.3,215.9,190,216,189.7,216z"/>
</g>
<g id="character_male__facetime-3-68">
	<path class="st1_facetime-3-68" d="M338.4,231.3c0,0-20-0.9-25.2,7.2s-21.8,56-21.8,56l69.3,1.6c0,0,4.2-30.5,1.8-43.1&#10;&#9;&#9;C359.8,238.3,362.2,228.6,338.4,231.3z"/>
	<path class="st0_facetime-3-68" d="M329.5,212.8c-0.2-0.9-0.6-1.6-1.2-2.3c-0.6-0.7-1.5-0.9-2.4-0.6c-0.6,0.3-1,0.9-1,1.6c-0.1,0.7,0,1.4,0.3,2&#10;&#9;&#9;c0.4,1.2,1,2.3,1.8,3.2c0.9,0.9,2.1,1.4,3.3,1.4"/>
	<path class="st1_facetime-3-68" d="M330.1,218.6c-1.3,0-2.6-0.6-3.6-1.6c-0.9-1-1.6-2.1-2-3.4c-0.3-0.7-0.4-1.5-0.3-2.2c0.1-0.9,0.6-1.7,1.4-2.1&#10;&#9;&#9;c1.1-0.4,2.3-0.1,3.1,0.8c0.6,0.7,1.1,1.6,1.3,2.5c0.1,0.3-0.1,0.7-0.4,0.8c-0.3,0.1-0.7-0.1-0.8-0.4c0,0,0,0,0,0&#10;&#9;&#9;c-0.2-0.8-0.6-1.5-1.1-2.1c-0.4-0.5-1.1-0.7-1.7-0.5c-0.4,0.2-0.7,0.7-0.7,1.1c0,0.6,0,1.1,0.2,1.7c0.3,1.1,0.9,2.1,1.7,2.9&#10;&#9;&#9;c0.8,0.8,1.8,1.2,2.9,1.2c0.3,0,0.6,0.2,0.6,0.6c0,0,0,0,0,0c0,0.3-0.2,0.6-0.6,0.6L330.1,218.6z"/>
	<path class="st0_facetime-3-68" d="M333.9,224.7l-1.3,10.4c0,0,0.4,5.9,6.9,4.9c3.9-0.7,7.3-3,9.3-6.5l1.4-18.1c0.1-0.8-2.7-4-1.8-10.6&#10;&#9;&#9;c-4.5-0.6-8.6-3-11.2-6.7c0,0-3.1,3.7-4.4,4.8c-1,0.8-2,1.8-2.8,2.9c-2.1,3-2.1,8-1.7,11.4C328.7,220.1,330.2,224.7,333.9,224.7z"/>
	<path class="st1_facetime-3-68" d="M338.1,240.8c-1.4,0-2.8-0.4-3.9-1.2c-1.3-1.1-2.1-2.7-2.3-4.4l1.2-9.8c-3.6-0.6-5.1-5.3-5.5-8.1&#10;&#9;&#9;c-0.3-2.4-0.7-8.3,1.8-11.9c0.8-1.1,1.8-2.1,2.9-3c1.2-1.1,4.3-4.7,4.3-4.7c0.1-0.2,0.4-0.3,0.6-0.2c0.2,0,0.4,0.1,0.6,0.3&#10;&#9;&#9;c2.5,3.5,6.4,5.8,10.7,6.3c0.2,0,0.4,0.1,0.5,0.3c0.1,0.2,0.2,0.3,0.1,0.5c-0.5,3.1,0,6.4,1.4,9.2c0.3,0.4,0.4,0.9,0.4,1.4l0,0&#10;&#9;&#9;c0,0,0,0.6-1.4,18.1c0,0.1,0,0.2-0.1,0.3c-2.1,3.7-5.7,6.2-9.8,6.9C339.1,240.8,338.6,240.8,338.1,240.8z M333.3,235.2&#10;&#9;&#9;c0.2,1.3,0.8,2.4,1.8,3.3c1.3,0.9,2.9,1.2,4.4,0.8c3.6-0.6,6.8-2.8,8.7-6c0.1-1.7,1.3-17.8,1.4-18l-0.3-0.7&#10;&#9;&#9;c-1.4-2.9-1.9-6.1-1.6-9.3c-4.1-0.7-7.9-2.9-10.5-6.1c-1.2,1.5-2.5,2.9-3.9,4.2c-1,0.8-1.9,1.7-2.6,2.7c-2.2,3.2-1.8,8.7-1.6,10.9&#10;&#9;&#9;c0.3,2.6,1.7,6.9,4.8,6.9c0.2,0,0.4,0.1,0.5,0.2c0.1,0.1,0.2,0.3,0.2,0.6L333.3,235.2L333.3,235.2z"/>
	<path class="st1_facetime-3-68" d="M333.4,227.8c1.7,0.5,3.5,0.5,5.2-0.1c3.8-1.2,4-3.8,4-3.8s-3.2,1.9-8.7,0.8L333.4,227.8z"/>
	<path class="st1_facetime-3-68" d="M335.6,228.9c-0.8,0-1.6-0.1-2.3-0.4c-0.1,0-0.2-0.1-0.3-0.2c-0.2-0.2-0.3-0.4-0.2-0.7l0.5-3.1&#10;&#9;&#9;c0-0.2,0.1-0.4,0.3-0.5c0.2-0.1,0.3-0.1,0.5-0.1c5.1,1.1,8.2-0.6,8.2-0.7c0.2-0.1,0.5-0.1,0.7,0c0.2,0.1,0.3,0.4,0.3,0.6&#10;&#9;&#9;c0,0.1-0.4,3-4.5,4.3C337.7,228.7,336.7,228.9,335.6,228.9z M334.2,227.4c1.4,0.3,2.8,0.2,4.2-0.3c1.1-0.3,2.1-0.9,2.9-1.8&#10;&#9;&#9;c-2.2,0.6-4.5,0.7-6.8,0.3L334.2,227.4z"/>
	<path class="st0_facetime-3-68" d="M339.9,207.1c0,0-3.9,4.6-3.2,5.6s3,0.6,3,0.6"/>
	<path class="st1_facetime-3-68" d="M338.8,214.1c-1,0.1-2-0.3-2.7-1c-0.7-0.9,0.4-3.1,3.3-6.4c0.2-0.3,0.7-0.3,1-0.1c0,0,0,0,0,0&#10;&#9;&#9;c0.3,0.3,0.3,0.7,0.1,1c-1.7,2-3.2,4.3-3.2,4.8c0.7,0.3,1.5,0.4,2.3,0.3c0.4-0.1,0.7,0.2,0.8,0.6c0,0,0,0,0,0&#10;&#9;&#9;c0.1,0.4-0.2,0.7-0.6,0.8c0,0,0,0,0,0C339.5,214.1,339.1,214.1,338.8,214.1z"/>
	
		<ellipse transform="matrix(0.1537 -0.9881 0.9881 0.1537 78.3439 507.6543)" class="st1_facetime-3-68" cx="335.5" cy="208.1" rx="1.1" ry="0.6"/>
	
		<ellipse transform="matrix(3.298073e-02 -0.9995 0.9995 3.298073e-02 124.2394 546.4275)" class="st1_facetime-3-68" cx="344.5" cy="209" rx="1.1" ry="0.6"/>
	<path class="st0_facetime-3-68" d="M348,211.3c0.2-0.9,0.7-1.7,1.2-2.5c0.6-0.9,1.7-1.3,2.7-1.3c0.7,0,1.3,0.4,1.6,0.9c0.2,0.4,0.4,0.8,0.4,1.3&#10;&#9;&#9;c0.3,2.3-0.5,5.3-2.8,6.5c-0.8,0.5-1.7,0.5-2.5,0"/>
	<path class="st1_facetime-3-68" d="M350,217.2c-0.6,0-1.1-0.2-1.5-0.5c-0.3-0.2-0.3-0.6-0.1-0.9c0.2-0.3,0.6-0.3,0.9-0.1c0,0,0,0,0,0&#10;&#9;&#9;c0.6,0.3,1.2,0.3,1.8-0.1c1.9-1,2.7-3.8,2.4-5.9c0-0.4-0.1-0.7-0.3-1c-0.3-0.4-0.7-0.6-1.2-0.6c-0.9,0-1.7,0.4-2.2,1.1&#10;&#9;&#9;c-0.5,0.7-0.9,1.4-1.1,2.3c-0.1,0.3-0.5,0.5-0.8,0.4c-0.3-0.1-0.5-0.5-0.4-0.8c0.3-1,0.7-1.9,1.3-2.7c0.8-1,2-1.6,3.3-1.5&#10;&#9;&#9;c0.9,0.1,1.6,0.5,2.1,1.2c0.3,0.5,0.4,1,0.5,1.5c0.3,2.6-0.6,5.8-3.1,7.1C351.1,217,350.6,217.2,350,217.2z"/>
	<path class="st0_facetime-3-68" d="M334,215.4l10,0.5c0,0-1.5,5.3-5.7,5S334,215.4,334,215.4z"/>
	<path class="st1_facetime-3-68" d="M338.7,221.6c-0.2,0-0.3,0-0.5,0c-3.9-0.3-4.9-4.2-5-6.1c0-0.4,0.3-0.7,0.7-0.7c0,0,0,0,0,0l10,0.5&#10;&#9;&#9;c0.2,0,0.4,0.1,0.5,0.3c0.1,0.2,0.2,0.4,0.1,0.6C344.2,218,342.2,221.6,338.7,221.6z M334.7,216.1c0.2,1.3,0.9,3.8,3.6,4&#10;&#9;&#9;s4.1-2.3,4.7-3.6L334.7,216.1z"/>
	<path class="st0_facetime-3-68" d="M309,291.7h-0.1c-0.4-0.1-0.7-0.5-0.6-0.9c0.8-4.3,7.6-41.8,7.9-42.9c0.1-0.4,0.6-0.7,1-0.6c0,0,0,0,0,0&#10;&#9;&#9;c0.4,0.1,0.7,0.6,0.6,1c-0.3,1-5.8,31.2-7.9,42.8C309.7,291.4,309.4,291.7,309,291.7z"/>
	<path class="st1_facetime-3-68" d="M358.3,234.9c0,0,13.4,20.5,15.2,20.8c1.9,0.3,5.8-19.6,5.8-19.6l13.9,4.6c0,0-6.4,49.9-14.4,47.9&#10;&#9;&#9;s-24-25.8-24-25.8L358.3,234.9z"/>
	<path class="st0_facetime-3-68" d="M377.1,288.2c-0.1,0-0.2,0-0.3,0c-10-3.8-19.2-21.5-19.5-22.2c-0.2-0.4,0-0.9,0.4-1.1c0.4-0.2,0.8,0,1.1,0.3&#10;&#9;&#9;c0.1,0.2,9.2,17.9,18.7,21.5c0.4,0.2,0.6,0.6,0.4,1.1C377.7,288,377.4,288.2,377.1,288.2L377.1,288.2z"/>
	<path class="st0_facetime-3-68" d="M381,236c0,0-1.1-15.4,0-15.5s2.7,7.4,2.7,7.4s3.1-10.1,4.1-10s1.4,2,0.6,6.8c0,0,1.9-7,3.1-6.3&#10;&#9;&#9;s-0.9,7.1-0.9,7.1s2-6.2,3-5.6s-1.3,7.1-1.3,7.1s1.8-6.7,2.8-5.4s-2.5,14.8-3.6,18.6"/>
	<path class="st1_facetime-3-68" d="M391.6,240.9c-0.1,0-0.1,0-0.2,0c-0.4-0.1-0.7-0.5-0.6-1c0,0,0,0,0,0c1.6-5.7,3.6-13.9,3.7-16.9&#10;&#9;&#9;c-0.2,0.4-0.4,0.8-0.5,1.4c-0.2,0.8-0.5,1.8-0.9,2.9c-0.1,0.4-0.6,0.6-1,0.5c0,0,0,0,0,0c-0.4-0.1-0.6-0.5-0.5-0.9&#10;&#9;&#9;c0.3-1.2,0.6-2.1,0.9-2.9s0.4-1.6,0.5-2.2c-0.6,1.3-1.1,2.6-1.6,4l0,0l0,0l0,0c-0.1,0.4-0.6,0.6-1,0.5c-0.4-0.1-0.6-0.6-0.5-1l0,0&#10;&#9;&#9;c0.6-1.8,1-3.7,1.2-5.6c-0.8,1.7-1.5,3.4-1.9,5.2c-0.1,0.4-0.5,0.6-0.9,0.6c-0.4-0.1-0.7-0.5-0.6-0.9c0.6-3.8,0.4-5.2,0.2-5.6&#10;&#9;&#9;c-1.4,3-2.6,6.1-3.5,9.2c-0.2,0.4-0.6,0.6-1,0.4c-0.2-0.1-0.3-0.3-0.4-0.5c-0.4-1.9-0.9-3.8-1.6-5.6c-0.1,2.6,0.1,8.3,0.4,13.5&#10;&#9;&#9;c0,0.4-0.3,0.8-0.7,0.8c0,0,0,0,0,0c-0.4,0-0.8-0.3-0.8-0.7c-1.1-16.2-0.1-16.2,0.7-16.3c0.5,0,1.5-0.1,2.9,5.2&#10;&#9;&#9;c2.6-7.9,3.5-7.9,4.1-7.9c0.4,0,0.8,0.2,1.1,0.6c0.3,0.5,0.5,1,0.6,1.6c0.3-0.7,0.7-1.3,1.4-1.6c0.3-0.1,0.7-0.1,1,0.1&#10;&#9;&#9;c0.5,0.4,0.8,1.1,0.7,1.7c0.1-0.1,0.3-0.2,0.4-0.3c0.3-0.1,0.7-0.1,0.9,0.1c0.2,0.1,0.6,0.4,0.6,1.4l0,0c0.4-0.1,0.9,0.1,1.1,0.5&#10;&#9;&#9;c1.4,1.9-3,17.5-3.5,19.2C392.2,240.7,391.9,240.9,391.6,240.9z"/>
	<path class="st1_facetime-3-68" d="M357.9,209.2h-0.2c-0.4-0.1-0.6-0.5-0.5-0.9c1-2.8,1.5-5.7,1.6-8.6c-0.1-2.4-1.1-5.6-3.6-7.1&#10;&#9;&#9;c-1.2-0.7-2.6-1.1-4-1.3c-4.1-0.9-8-1.6-11.9-0.9l-1,0.2c-1,0.3-2,0.4-3.1,0.4c-0.5,0-1-0.1-1.4-0.2c-0.4-0.1-0.8-0.1-1.2-0.2&#10;&#9;&#9;c-3.4-0.2-6.2,2.7-7.3,5.6c-1.2,3.3-0.9,7.1-0.6,10.4c0.1,0.4-0.2,0.8-0.6,0.8s-0.8-0.2-0.8-0.6c0,0,0-0.1,0-0.1&#10;&#9;&#9;c-0.3-3.5-0.6-7.4,0.7-11s4.7-6.8,8.7-6.6c0.4,0,0.9,0.1,1.3,0.2c0.4,0.1,0.8,0.1,1.3,0.2c0.9,0,1.9-0.1,2.8-0.3l1-0.2&#10;&#9;&#9;c4.1-0.7,8.2,0,12.4,0.9c1.5,0.3,3,0.8,4.4,1.5c2.6,1.6,4.2,4.7,4.3,8.3c-0.1,3.1-0.6,6.2-1.7,9.1&#10;&#9;&#9;C358.5,209,358.2,209.2,357.9,209.2z"/>
</g>
</svg>