<svg id="_0072_music" xmlns="http://www.w3.org/2000/svg" viewBox="0 0 500 500" data-imageid="music-99" imageName="Music" class="illustrations_image" style="width: 151px;"><defs><style>.cls-1_music-99,.cls-2_music-99,.cls-3_music-99{fill:#fff;}.cls-4_music-99{fill:#f4a28c;}.cls-5_music-99{opacity:.03;}.cls-5_music-99,.cls-6_music-99{fill:#000001;}.cls-7_music-99,.cls-8_music-99{fill:#e6e6e6;}.cls-8_music-99{opacity:.49;}.cls-2_music-99{opacity:.16;}.cls-3_music-99{opacity:.46;}.cls-9_music-99{fill:#24285b;}.cls-6_music-99{opacity:.08;}.cls-10_music-99{fill:#ffd200;}.cls-11_music-99{fill:#68e1fd;}</style></defs><ellipse id="sd_music-99" class="cls-5_music-99" cx="250" cy="450.22" rx="177.15" ry="22.39"/><g id="musician_music-99"><path class="cls-11_music-99 targetColor" d="m232.03,265.9s12.77,37.85,48.01,33.76c35.24-4.09,34.85-88.37,34.85-88.37l-82.86,54.61Z" style="fill: rgb(255, 242, 229);"/><path class="cls-6_music-99" d="m232.03,265.9s12.77,37.85,48.01,33.76c35.24-4.09,34.85-88.37,34.85-88.37l-82.86,54.61Z"/><rect class="cls-10_music-99" x="290.16" y="101.01" width="12.31" height="6.68" transform="translate(-12.5 46.68) rotate(-8.82)"/><rect class="cls-6_music-99" x="290.16" y="101.01" width="12.31" height="6.68" transform="translate(-12.5 46.68) rotate(-8.82)"/><rect class="cls-10_music-99" x="293.06" y="119.72" width="12.31" height="6.68" transform="translate(-15.33 47.34) rotate(-8.82)"/><rect class="cls-6_music-99" x="293.06" y="119.72" width="12.31" height="6.68" transform="translate(-15.33 47.34) rotate(-8.82)"/><rect class="cls-10_music-99" x="295.61" y="136.92" width="12.31" height="6.68" transform="translate(-17.94 47.94) rotate(-8.82)"/><rect class="cls-6_music-99" x="295.61" y="136.92" width="12.31" height="6.68" transform="translate(-17.94 47.94) rotate(-8.82)"/><rect class="cls-10_music-99" x="299.51" y="153.84" width="12.31" height="6.68" transform="translate(-20.49 48.74) rotate(-8.82)"/><rect class="cls-6_music-99" x="299.51" y="153.84" width="12.31" height="6.68" transform="translate(-20.49 48.74) rotate(-8.82)"/><rect class="cls-10_music-99" x="302.21" y="171.12" width="12.31" height="6.68" transform="translate(-23.11 49.36) rotate(-8.82)"/><rect class="cls-6_music-99" x="302.21" y="171.12" width="12.31" height="6.68" transform="translate(-23.11 49.36) rotate(-8.82)"/><path class="cls-4_music-99" d="m262.56,50.79s.91,13.71-1.57,22.76c-1.01,3.67-4.87,5.86-8.52,4.8-4.54-1.32-10.3-4.42-11.68-11.7l-3.86-12.08s-2.16-7.65,5.7-13.07c7.85-5.41,19.8.91,19.94,9.29Z"/><polygon class="cls-4_music-99" points="239.33 54.06 223.9 96.35 247.82 103.18 249.4 70.51 239.33 54.06"/><path class="cls-9_music-99" d="m235.49,48.48l-.58,17.64s6.91,3.01,11.34-3.49c4.43-6.5.25-12.57.25-12.57,5.84,1.2,13.82-1.39,16.22-1.47,1.43-.05-.29,1.07,0-5.15,0,0-1.76-6-8.7-8.51s-19.13-.78-18.53,13.55Z"/><polygon class="cls-4_music-99" points="262.7 59.05 266.62 65.79 262.21 66.81 262.7 59.05"/><path class="cls-11_music-99 targetColor" d="m209.85,426.21s-.04,8.18,6.28,11.12c6.33,2.94,5.7,9.95-.78,9.47-6.48-.49-18.87-13.58-18.87-13.58l3.87-9.27,9.49,2.25Z" style="fill: rgb(255, 242, 229);"/><path class="cls-11_music-99 targetColor" d="m304.71,430.98s1.49,8.04,8.25,9.75c6.77,1.71,7.46,8.71,1,9.45-6.46.73-21.07-9.81-21.07-9.81l2.07-9.83,9.74.44Z" style="fill: rgb(255, 242, 229);"/><path class="cls-9_music-99" d="m223.9,46.58s31.76,12.95,53.25,7.48l-8.28-4.52c-2.83-1.55-4.85-4.25-5.53-7.4l-3.2-14.74-23.49,2.39-1.03,8.31c-.43,3.44-2.93,6.27-6.3,7.12l-5.42,1.36Z"/><path class="cls-11_music-99 targetColor" d="m188.34,90.16c4.62.84,9.24,1.6,13.91,2.13,15.18,1.7,48.63,6.44,76.2,17.46,36.93,14.77,45.37,109.73-33.23,175.14h-81.77s-50.64-102.67-36.93-156.48c10.97-43.05,47.6-40.85,61.82-38.25Z" style="fill: rgb(255, 242, 229);"/><path class="cls-9_music-99" d="m163.45,284.89l39.08,51.07c12.36,16.15,15.53,37.51,8.42,56.55l-11.63,31.1,14.77,6.92,19.86-38.07c11.4-21.84,11.69-47.81.79-69.91l-12.36-25.05,22.83-12.61h-81.77Z"/><path class="cls-9_music-99" d="m262.21,104.11s22.92,112.56-23.15,180.78h6.15s43.79-47.48,29.37-177.95c0,0-7.6-1.44-12.37-2.83Z"/><path class="cls-9_music-99" d="m188.34,90.16s68.88,68.16,12.04,194.73h-12.04s62.66-128.33-18.22-195.69c0,0,9.67-2.35,18.22.96Z"/><path class="cls-6_music-99" d="m178.84,114.51s18.9,33.23,14.16,63.83c-4.75,30.59,80.19-61.2,80.19-61.2l12.13,48.33s-17.41,91.47-121.86,119.43l-11.61-26.38s-13.54-101.26,26.99-144.01Z"/><path class="cls-10_music-99" d="m260.15,71.93l10.13-2.45c10.24-2.48,20.45,4.2,22.27,14.58l24.76,141.08c2.35,13.38,19.71,17.22,27.48,6.08l17.76-25.45,61.62,77.55-56.65,23.94c-41.04,17.34-86.7-11.94-88.06-56.48l-5.02-164.8c-.16-5.33-4.27-9.71-9.58-10.22l-4.48-.43c-1.94-.19-2.14-2.95-.24-3.41Z"/><polygon class="cls-9_music-99" points="245.22 284.89 307.27 430.54 290.41 430.54 212.33 297.51 245.22 284.89"/><polygon class="cls-9_music-99" points="210.4 93.29 225.17 84.3 237.41 97.87 228.86 108.7 210.4 93.29"/><polygon class="cls-9_music-99" points="237.41 97.87 248.65 91.29 253.76 102.33 243.41 110.65 237.41 97.87"/><circle class="cls-1_music-99" cx="236.78" cy="126.63" r="4.75"/><circle class="cls-1_music-99" cx="241.52" cy="197.77" r="4.75"/><circle class="cls-1_music-99" cx="233.45" cy="246.58" r="4.75"/><circle class="cls-1_music-99" cx="232.03" cy="165.46" r="4.75"/><path class="cls-4_music-99" d="m258.83,116.31s9.19-15.34,17.1-14.57,4.43,20.29-10.71,25.57l-6.39-10.99Z"/><path class="cls-11_music-99 targetColor" d="m182.13,135.33c5.41-31.01-32.59-50.1-53.94-26.97-8.96,9.71-15.38,23.63-15.38,43.59,0,65.94.53,103.92,39.04,106.56s115.37-131.88,115.37-131.88l-9.87-12.13s-71.74,69.63-97.59,85.99c0,0,16.02-28.75,22.37-65.16Z" style="fill: rgb(255, 242, 229);"/><path class="cls-3_music-99" d="m182.13,135.33c5.41-31.01-32.59-50.1-53.94-26.97-8.96,9.71-15.38,23.63-15.38,43.59,0,65.94.53,103.92,39.04,106.56s115.37-131.88,115.37-131.88l-9.87-12.13s-71.74,69.63-97.59,85.99c0,0,16.02-28.75,22.37-65.16Z"/><ellipse class="cls-10_music-99" cx="395.64" cy="241.83" rx="19.32" ry="50.34" transform="translate(-66.52 279.59) rotate(-36.11)"/><ellipse class="cls-3_music-99" cx="395.64" cy="241.83" rx="19.32" ry="50.34" transform="translate(-66.52 279.59) rotate(-36.11)"/><ellipse class="cls-10_music-99" cx="397.28" cy="240.36" rx="9.36" ry="36.8" transform="translate(-65.33 280.28) rotate(-36.11)"/><ellipse class="cls-6_music-99" cx="397.28" cy="240.36" rx="9.36" ry="36.8" transform="translate(-65.33 280.28) rotate(-36.11)"/><path class="cls-11_music-99 targetColor" d="m235.74,37.11s13.48,2.8,26.77,1.24l2.43,7.55s-9.33,1.8-31.5-3.14l2.3-5.65Z" style="fill: rgb(255, 242, 229);"/><path class="cls-4_music-99" d="m314.89,211.29s9.35-16.43,0-23.11-14.56,15.28,0,23.11Z"/><path class="cls-2_music-99" d="m318.28,288.48c-4.31-1.05-6.77,4.75-3,7.1,7.21,4.49,17.26,8.13,29.99,6.55,15.42-1.9,28.17-6.8,36.61-10.89,5.69-2.76,6.76-10.42,2.09-14.68h0c-4.9-4.47-12.65-4.08-16.82,1.08-6.84,8.46-20.96,17.63-48.87,10.84Z"/></g><g id="bg_music-99"><circle class="cls-8_music-99" cx="327.29" cy="338.58" r="3.58"/><circle class="cls-8_music-99" cx="143.74" cy="361.9" r="3.58"/><path class="cls-7_music-99" d="m432.07,296.28c.48-1.43,2.02-2.2,3.46-1.73s2.2,2.03,1.73,3.46l-13.15,39.39c3.53.27,7.67,2.35,11.09,5.93,5.56,5.82,7.11,13.35,3.47,16.83-3.64,3.48-11.1,1.58-16.65-4.24-4.24-4.44-6.13-9.87-5.17-13.75.02-.13,0-.27.05-.4l15.19-45.5Z"/><path class="cls-7_music-99" d="m434.41,101.98l-28.75-1.81-.47-1.88c-.29-1.15-1.45-1.84-2.6-1.55s-1.84,1.45-1.55,2.6l7.96,31.57c-2.77,0-6.13,1.39-9.02,3.99-4.69,4.22-6.34,10.02-3.7,12.95,2.64,2.93,8.58,1.89,13.27-2.33,3.58-3.22,5.37-7.36,4.85-10.44-.01-.11.01-.21-.02-.32l-5.47-21.67,25.49-11.1Z"/><path class="cls-7_music-99" d="m108.31,310.03l-34.32-2.38-.55-2.24c-.34-1.37-1.72-2.21-3.09-1.87s-2.21,1.72-1.87,3.09l9.27,37.76c-3.31-.02-7.33,1.61-10.8,4.69-5.63,5.01-7.65,11.92-4.52,15.44,3.13,3.52,10.23,2.32,15.86-2.69,4.3-3.82,6.47-8.75,5.88-12.43-.01-.13.02-.25-.02-.38l-6.36-25.93,30.53-13.06Z"/><path class="cls-7_music-99" d="m104.7,114.65l-24.39-10.06c-.94-.45-2.07-.05-2.52.89l-12.33,25.93c-1.89-1.56-4.95-2.5-8.37-2.36-5.56.24-9.94,3.25-9.8,6.72.15,3.48,4.77,6.11,10.33,5.87,4.24-.18,7.79-1.98,9.17-4.37.05-.08.13-.14.17-.22l10.91-22.96,21.1,8.2-9.12,19.18c-1.89-1.56-4.95-2.5-8.37-2.36-5.56.24-9.94,3.25-9.8,6.72.15,3.48,4.77,6.11,10.33,5.87,4.24-.18,7.79-1.98,9.17-4.37.05-.08.13-.14.17-.22l14.24-29.95c.45-.94.05-2.07-.89-2.52Z"/><circle class="cls-8_music-99" cx="177.36" cy="63.48" r="7.17"/><circle class="cls-8_music-99" cx="447.52" cy="219.29" r="5.18"/><circle class="cls-8_music-99" cx="338.27" cy="91.69" r="5.37"/><circle class="cls-8_music-99" cx="71.82" cy="225.55" r="10.87"/></g></svg>