<svg id="_0249_completed_task" xmlns="http://www.w3.org/2000/svg" viewBox="0 0 500 500" data-imageid="completed-task-68" imageName="Completed Task" class="illustrations_image" style="width: 140px;"><defs><style>.cls-1_completed-task-68{fill:#fff;}.cls-2_completed-task-68{fill:#f4a28c;}.cls-3_completed-task-68{fill:#a5a5a5;}.cls-4_completed-task-68{opacity:.58;}.cls-4_completed-task-68,.cls-5_completed-task-68,.cls-6_completed-task-68,.cls-7_completed-task-68,.cls-8_completed-task-68,.cls-9_completed-task-68,.cls-10_completed-task-68{fill:none;}.cls-5_completed-task-68{opacity:.17;}.cls-11_completed-task-68{fill:#ce8172;}.cls-6_completed-task-68{opacity:.44;}.cls-12_completed-task-68,.cls-13_completed-task-68{fill:#e6e6e6;}.cls-13_completed-task-68{opacity:.4;}.cls-7_completed-task-68{opacity:.03;}.cls-8_completed-task-68{opacity:.09;}.cls-9_completed-task-68{opacity:.73;}.cls-10_completed-task-68{opacity:.31;}.cls-14_completed-task-68{fill:#24285b;}.cls-15_completed-task-68{fill:#000001;}.cls-16_completed-task-68{fill:#ffd200;}.cls-17_completed-task-68{fill:#68e1fd;}</style></defs><g id="sd_completed-task-68" class="cls-7_completed-task-68"><ellipse class="cls-15_completed-task-68" cx="168.41" cy="456.93" rx="141.72" ry="20.11"/></g><g id="task_completed-task-68"><rect class="cls-12_completed-task-68" x="231.54" y="22.95" width="241.77" height="356.39"/><rect class="cls-14_completed-task-68" x="267.94" y="81.11" width="174.04" height="51.28"/><rect class="cls-3_completed-task-68" x="249.22" y="37.18" width="21.97" height="2"/><rect class="cls-3_completed-task-68" x="249.22" y="45.77" width="21.97" height="2"/><rect class="cls-3_completed-task-68" x="249.22" y="54.35" width="21.97" height="2"/><rect class="cls-1_completed-task-68" x="300.72" y="38.18" width="141.27" height="18.68"/><circle class="cls-16_completed-task-68" cx="299.62" cy="106.98" r="18.45"/><path class="cls-1_completed-task-68" d="m297.51,116.03s-.04,0-.06,0c-.64-.02-1.23-.34-1.59-.87l-4.69-6.86c-.62-.91-.39-2.16.52-2.78.91-.62,2.16-.39,2.78.52l3.14,4.59,8.07-10.46c.67-.88,1.93-1.04,2.81-.36.87.67,1.04,1.93.36,2.81l-9.75,12.63c-.38.49-.96.78-1.58.78Z"/><g class="cls-5_completed-task-68"><rect class="cls-1_completed-task-68" x="331.99" y="95.5" width="73.33" height="8.12"/></g><g class="cls-5_completed-task-68"><rect class="cls-1_completed-task-68" x="331.99" y="111.74" width="45.95" height="8.12"/></g><rect class="cls-14_completed-task-68" x="267.94" y="147.31" width="174.04" height="51.28"/><g class="cls-5_completed-task-68"><circle class="cls-1_completed-task-68" cx="299.62" cy="173.18" r="18.45"/></g><g class="cls-5_completed-task-68"><rect class="cls-1_completed-task-68" x="331.99" y="161.69" width="73.33" height="8.12"/></g><g class="cls-5_completed-task-68"><rect class="cls-1_completed-task-68" x="331.99" y="177.94" width="45.95" height="8.12"/></g><rect class="cls-14_completed-task-68" x="267.94" y="213.5" width="174.04" height="51.28"/><g class="cls-5_completed-task-68"><circle class="cls-1_completed-task-68" cx="299.62" cy="239.38" r="18.45"/></g><g class="cls-5_completed-task-68"><rect class="cls-1_completed-task-68" x="331.99" y="227.89" width="73.33" height="8.12"/></g><g class="cls-5_completed-task-68"><rect class="cls-1_completed-task-68" x="331.99" y="244.13" width="45.95" height="8.12"/></g><rect class="cls-14_completed-task-68" x="267.94" y="280.1" width="174.04" height="51.28"/><g class="cls-5_completed-task-68"><circle class="cls-1_completed-task-68" cx="299.62" cy="305.97" r="18.45"/></g><g class="cls-5_completed-task-68"><rect class="cls-1_completed-task-68" x="331.99" y="294.49" width="73.33" height="8.12"/></g><g class="cls-5_completed-task-68"><rect class="cls-1_completed-task-68" x="331.99" y="310.73" width="45.95" height="8.12"/></g><g class="cls-8_completed-task-68"><path class="cls-15_completed-task-68" d="m317.03,191.35s13.66,22.93-6.25,29.67c0,0-6.18,68.82-48.27,80.87v-23.51l33.08-70.45,21.44-16.57Z"/></g><rect class="cls-13_completed-task-68" x="42.73" y="39.18" width="106.7" height="36.92"/><rect class="cls-13_completed-task-68" x="42.73" y="97.57" width="106.7" height="36.92"/></g><g id="plant_completed-task-68"><g class="cls-4_completed-task-68"><path class="cls-17_completed-task-68 targetColor" d="m81.49,437.2s-15.57-4.25-18.95-18.74c0,0,24.12-4.87,24.8,20.02l-5.85-1.28Z" style="fill: rgb(255, 148, 114);"/></g><g class="cls-9_completed-task-68"><path class="cls-17_completed-task-68 targetColor" d="m83.39,435.66s-10.87-17.19-1.3-33.27c0,0,18.34,11.65,10.19,33.3l-8.89-.04Z" style="fill: rgb(255, 148, 114);"/></g><path class="cls-17_completed-task-68 targetColor" d="m86.2,435.67s5.75-18.16,23.11-21.6c0,0,3.26,11.79-11.25,21.65l-11.87-.05Z" style="fill: rgb(255, 148, 114);"/><polygon class="cls-14_completed-task-68" points="74.91 435.26 78.06 456.85 97.93 456.93 100.86 435.37 74.91 435.26"/></g><g id="person_completed-task-68"><path class="cls-17_completed-task-68 targetColor" d="m246.23,439.37s5.78,5.42,12.04,2.86c6.26-2.56,10.83,2.5,6.22,6.79-4.61,4.29-22.07,4.47-22.07,4.47l-5.12-11.24,8.93-2.88Z" style="fill: rgb(255, 148, 114);"/><path class="cls-17_completed-task-68 targetColor" d="m148.91,436.85s-2.84,7.4,1.89,12.23c4.73,4.83,1.76,10.97-3.94,8.32-5.71-2.66-12.46-18.76-12.46-18.76l8.48-8.98,6.03,7.19Z" style="fill: rgb(255, 148, 114);"/><path class="cls-14_completed-task-68" d="m133.41,297.86s-6.11,24.14,4.52,36.02c10.63,11.88,26.88,68.13,0,96.26l10.63,10s46.55-23.75,33.28-109.39l33.23-32.89h-81.65Z"/><path class="cls-17_completed-task-68 targetColor" d="m215.06,160.44s32.88,8.37,33.12,35.61c.24,27.23-14.59,74.89,6.56,78.78,21.15,3.89,33.8-54.95,33.8-54.95l15.07,6.08s-16.05,100.52-71.48,83.94c-55.44-16.59-17.07-149.45-17.07-149.45Z" style="fill: rgb(255, 148, 114);"/><g class="cls-6_completed-task-68"><path class="cls-1_completed-task-68" d="m215.06,160.44s32.88,8.37,33.12,35.61c.24,27.23-14.59,74.89,6.56,78.78,21.15,3.89,33.8-54.95,33.8-54.95l15.07,6.08s-16.05,100.52-71.48,83.94c-55.44-16.59-17.07-149.45-17.07-149.45Z"/></g><polygon class="cls-2_completed-task-68" points="185.48 115.73 175.46 151.05 195.32 155.17 194.63 127.82 185.48 115.73"/><g class="cls-10_completed-task-68"><path class="cls-11_completed-task-68" d="m195.04,133.8s-3.62-1.2-6.05-4.66c0,0-.51,6.7,6.03,14.16l.02-9.5Z"/></g><path class="cls-17_completed-task-68 targetColor" d="m175.46,151.05l11.78,2.45s53.89,5.81,56.08,36.23c2.19,30.42-28.26,108.14-28.26,108.14h-81.65s-65.42-154.85,42.05-146.81Z" style="fill: rgb(255, 148, 114);"/><g class="cls-8_completed-task-68"><path class="cls-15_completed-task-68" d="m168.41,179.23s6.58,19-10.68,31.4c-17.26,12.4-8.84,59.08,10.05,66.62,18.89,7.54-11.81,23.66-24.91,17.06-13.1-6.6-14.91-11.04-14.91-11.04,0,0-12.15-35.12-13.44-57.52-1.29-22.41,53.89-46.51,53.89-46.51Z"/></g><rect class="cls-16_completed-task-68" x="124.79" y="267.62" width="49.28" height="65.77" transform="translate(76.33 -27.05) rotate(13.86)"/><g class="cls-8_completed-task-68"><path class="cls-15_completed-task-68" d="m161.54,303.82s3.05,7.54-7.56,9.1c-10.61,1.56-32.99,0-32.99,0l3.72-15.07,36.83,5.96Z"/></g><path class="cls-17_completed-task-68 targetColor" d="m168.41,179.23c-.04-16.73-16.94-28.15-32.84-22.93-13.82,4.53-30.69,12.95-40.93,28.31-19.69,29.54-64.69,115.88,49.53,119.21l3.35-12.72s-68.57-18.96-38.29-59.08c23.54-31.2,59.25-29.1,59.18-52.79Z" style="fill: rgb(255, 148, 114);"/><g class="cls-6_completed-task-68"><path class="cls-1_completed-task-68" d="m168.41,179.23c-.04-16.73-16.94-28.15-32.84-22.93-13.82,4.53-30.69,12.95-40.93,28.31-19.69,29.54-64.69,115.88,49.53,119.21l3.35-12.72s-68.57-18.96-38.29-59.08c23.54-31.2,59.25-29.1,59.18-52.79Z"/></g><path class="cls-2_completed-task-68" d="m292.05,221.29s.86-14.55,6.7-18.68c5.84-4.13,4.86,6.32,4.86,6.32,0,0,5.84-6.81,10.7-3.65,4.86,3.16-10.7,20.67-10.7,20.67l-11.56-4.66Z"/><path class="cls-2_completed-task-68" d="m206.04,116.76s-1,11.16-4.14,18.14c-1.28,2.83-4.66,4.11-7.47,2.79-3.49-1.64-7.74-4.86-7.93-10.91l-1.59-10.22s-.77-6.44,6.24-9.81c7.01-3.37,15.84,3.23,14.89,10Z"/><path class="cls-2_completed-task-68" d="m205.05,123.76l2.32,4.79c.57,1.18-.28,2.56-1.6,2.58l-4.36.04,3.64-7.41Z"/><circle class="cls-16_completed-task-68" cx="305.95" cy="194.02" r="22.01"/><path class="cls-1_completed-task-68" d="m303.44,204.81s-.05,0-.07,0c-.76-.02-1.47-.41-1.9-1.04l-5.6-8.18c-.74-1.09-.47-2.57.62-3.32,1.09-.74,2.57-.47,3.32.62l3.75,5.47,9.62-12.48c.81-1.04,2.3-1.24,3.35-.43,1.04.81,1.24,2.3.43,3.35l-11.63,15.08c-.45.59-1.15.93-1.89.93Z"/><path class="cls-14_completed-task-68" d="m215.06,297.86l34.13,142.28-17.06,2.5s-34.13-97.51-56.66-117.51l39.6-27.27Z"/><path class="cls-2_completed-task-68" d="m147.05,292.87s12.19-1.96,16.25,6.48c4.06,8.44-19.14,4.47-19.14,4.47l2.89-10.95Z"/><path class="cls-14_completed-task-68" d="m182.15,127.46l6.83-1.67,4.15-2.04s2.99-.18,1.91-7.45c0,0,14.68,5.06,16.61-3.63,2.11-9.49-8.84-13.71-16.61-12.89-7.77.82-10.16,7.97-10.16,7.97,0,0-12.19-1.94-2.73,19.71Z"/><path class="cls-2_completed-task-68" d="m192.64,124.12s.67-4.26-2.58-4.5c-3.25-.24-4.26,5.91-.02,7.25l2.6-2.75Z"/></g></svg>