<svg version="1.1" id="Layer_1" xmlns="http://www.w3.org/2000/svg" xmlns:xlink="http://www.w3.org/1999/xlink" x="0px" y="0px" viewBox="0 0 500 500" style="width: 151px;" xml:space="preserve" data-imageid="motivation-7-54" imageName="Motivation 7" class="illustrations_image">
<style type="text/css">
	.st0_motivation-7-54{fill:#FFC9B0;}
	.st1_motivation-7-54{fill:#093F68;}
	.st2_motivation-7-54{fill:#68E1FD;}
	.st3_motivation-7-54{fill:#FFFFFF;}
	.st4_motivation-7-54{fill:#725858;}
	.st5_motivation-7-54{fill:#F56132;}
	.st6_motivation-7-54{fill:#DFEAEF;}
</style>
<g id="character_motivation-7-54">
	<path class="st0_motivation-7-54" d="M359.6,141.7l3-5.9c0,0-3.1-6.4-0.6-10.6s5-9.7,7.9-8.1s4.2,2.1,4.2,2.1s1-3.6,4.2-3.8s18,15.8,17.4,18.6&#10;&#9;&#9;c-1.7,8.4-9.5,18.5-17.3,24.1l-14.9,28.3l-19.4-19.4L359.6,141.7z"/>
	<path class="st1_motivation-7-54" d="M363.6,188.3c-0.5,0-0.9-0.2-1.3-0.5l-19.4-19.4c-0.6-0.6-0.7-1.5-0.3-2.2l15.4-25.3l2.5-5&#10;&#9;&#9;c-0.8-2.1-2.5-7.5-0.1-11.5c0.3-0.6,0.7-1.1,1-1.7c2.4-4.1,5.3-9.2,9.3-7.1l2.5,1.3c1-1.8,2.9-3,5-3.2c3.7-0.1,12,9.1,13.6,11&#10;&#9;&#9;c6.2,7.2,5.8,9,5.7,9.8c-1.9,9.4-10.3,19.6-17.7,25l-14.7,27.9c-0.3,0.5-0.8,0.9-1.3,1C363.7,188.3,363.6,188.3,363.6,188.3z&#10;&#9;&#9; M346.4,166.8l16.7,16.6l13.7-26.1c0.1-0.3,0.3-0.5,0.5-0.6c7.9-5.6,15-15.4,16.6-22.8c-0.6-3.1-12.8-16.1-15.6-16.6&#10;&#9;&#9;c-1.8,0.1-2.5,2.4-2.5,2.5c-0.1,0.5-0.5,0.9-1,1.2c-0.5,0.2-1,0.2-1.5,0c0,0-1.3-0.6-4.3-2.1c-1-0.5-3.4,3.7-4.5,5.7&#10;&#9;&#9;c-0.3,0.6-0.7,1.2-1,1.8c-1.6,2.8-0.1,7.4,0.7,8.9c0.3,0.5,0.3,1.1,0,1.6l-3,5.9c0,0,0,0.1-0.1,0.1L346.4,166.8z M359.6,141.7&#10;&#9;&#9;L359.6,141.7z"/>
	<path class="st0_motivation-7-54" d="M374.1,119.2c0,0,14,11.9,9.9,14.5s-10.7-4.6-10.7-4.6s5.9,8.4-0.5,12.8"/>
	<path class="st1_motivation-7-54" d="M372.8,143.7c-1,0-1.8-0.8-1.8-1.8c0-0.6,0.3-1.2,0.8-1.5c1.1-0.7,1.9-1.7,2.1-3c0.6-3.3-2-7.1-2-7.2&#10;&#9;&#9;c-0.6-0.8-0.5-1.9,0.3-2.5c0.8-0.6,1.9-0.5,2.5,0.3c1.8,2,6.3,5.7,8.4,4.3c0.2-1.4-4.6-6.9-10.1-11.6c-0.8-0.6-0.9-1.8-0.2-2.6&#10;&#9;&#9;c0.6-0.8,1.8-0.9,2.6-0.2l0,0c2.7,2.3,11.6,10.2,11.3,14.7c-0.1,1.1-0.6,2.1-1.6,2.7c-2.4,1.6-5.2,0.9-7.5-0.4&#10;&#9;&#9;c0.2,1.1,0.2,2.1,0,3.2c-0.4,2.2-1.7,4.2-3.7,5.4C373.5,143.6,373.1,143.7,372.8,143.7z"/>
	<polygon class="st1_motivation-7-54" points="203.1,372.1 242.1,393.7 289.5,372.1 289.5,323.1 203.1,323.1 &#9;"/>
	<path class="st1_motivation-7-54" d="M242.1,395.5c-0.3,0-0.6-0.1-0.9-0.2l-39-21.6c-0.6-0.3-0.9-0.9-0.9-1.6v-49c0-1,0.8-1.8,1.8-1.8c0,0,0,0,0,0&#10;&#9;&#9;h86.4c1,0,1.8,0.8,1.8,1.8v49c0,0.7-0.4,1.4-1.1,1.6l-47.4,21.6C242.6,395.5,242.4,395.5,242.1,395.5z M204.9,371l37.3,20.6&#10;&#9;&#9;l45.5-20.7v-46h-82.8V371z"/>
	<path class="st0_motivation-7-54" d="M135,141.7l-3-5.9c0,0,3.1-6.4,0.6-10.6s-5-9.7-7.9-8.1s-4.2,2.1-4.2,2.1s-1-3.6-4.2-3.8s-18,15.8-17.4,18.6&#10;&#9;&#9;c1.7,8.4,9.5,18.5,17.3,24.1l14.9,28.3l19.4-19.4L135,141.7z"/>
	<path class="st1_motivation-7-54" d="M131.1,188.3c-0.1,0-0.2,0-0.3,0c-0.6-0.1-1.1-0.5-1.3-1l-14.7-27.9c-7.4-5.4-15.8-15.6-17.7-25&#10;&#9;&#9;c-0.2-0.8-0.5-2.6,5.7-9.8c1.6-1.9,9.9-11.2,13.6-11c2.1,0.2,4,1.3,5,3.2l2.5-1.3c4.1-2.1,7,3,9.3,7.1c0.3,0.6,0.7,1.2,1,1.7&#10;&#9;&#9;c2.4,4,0.7,9.4-0.1,11.5l2.6,5L152,166c0.4,0.7,0.3,1.6-0.3,2.2l-19.4,19.4C132,188,131.6,188.2,131.1,188.3z M100.7,133.8&#10;&#9;&#9;c1.6,7.4,8.7,17.2,16.6,22.8c0.2,0.2,0.4,0.4,0.6,0.6l13.7,26.1l16.7-16.6l-14.7-24.1c0,0-0.1-0.1-0.1-0.1l-3-5.9&#10;&#9;&#9;c-0.3-0.5-0.3-1.1,0-1.6c0.7-1.6,2.3-6.2,0.7-8.9c-0.3-0.6-0.7-1.2-1-1.8c-1.1-2-3.5-6.2-4.5-5.7c-3,1.5-4.3,2.1-4.3,2.1&#10;&#9;&#9;c-0.5,0.2-1,0.2-1.5,0c-0.5-0.2-0.9-0.7-1-1.2c0-0.1-0.7-2.3-2.6-2.4C113.5,117.7,101.3,130.8,100.7,133.8L100.7,133.8z"/>
	<path class="st0_motivation-7-54" d="M120.5,119.2c0,0-14,11.9-9.9,14.5s10.7-4.6,10.7-4.6s-5.9,8.4,0.6,12.8"/>
	<path class="st1_motivation-7-54" d="M121.9,143.7c-0.4,0-0.7-0.1-1-0.3c-1.9-1.2-3.2-3.2-3.7-5.4c-0.2-1.1-0.2-2.1,0-3.2c-2.4,1.3-5.1,2-7.5,0.4&#10;&#9;&#9;c-0.9-0.6-1.5-1.6-1.6-2.7c-0.3-4.6,8.6-12.4,11.3-14.7c0.8-0.6,1.9-0.5,2.6,0.2c0.6,0.8,0.5,1.9-0.2,2.6l0,0&#10;&#9;&#9;c-5.5,4.7-10.3,10.2-10,11.7c2.1,1.2,6.5-2.4,8.3-4.4c0.7-0.7,1.8-0.8,2.6-0.1c0.6,0.6,0.8,1.6,0.3,2.3c0,0-2.7,3.9-2,7.2&#10;&#9;&#9;c0.3,1.3,1,2.3,2.1,3c0.8,0.6,1.1,1.7,0.5,2.5c-0.3,0.5-0.9,0.8-1.5,0.8L121.9,143.7z"/>
	<path class="st2_motivation-7-54 targetColor" d="M380.4,165.7c0,0-46,81.3-90.9,115.7v68.2h-86.4v-69.8c-44.3-35.3-88.8-114.1-88.8-114.1l24.3-18.3&#10;&#9;&#9;c26.7,42.2,61,79.8,74.7,94.2h68.1c13.7-14.4,48-52,74.7-94.2L380.4,165.7z" style="fill: rgb(255, 148, 114);"/>
	<path class="st1_motivation-7-54" d="M289.5,351.5h-86.4c-1,0-1.8-0.8-1.8-1.8c0,0,0,0,0,0v-69c-43.8-35.4-88.2-113.3-88.6-114.1&#10;&#9;&#9;c-0.4-0.8-0.2-1.8,0.5-2.3l24.3-18.2c0.8-0.6,2-0.4,2.6,0.4c0,0,0,0.1,0.1,0.1c26.3,41.6,60.1,78.7,74,93.3h66.5&#10;&#9;&#9;c13.9-14.6,47.6-51.7,74-93.4c0.5-0.9,1.7-1.1,2.5-0.5c0,0,0.1,0,0.1,0.1l24.3,18.3c0.7,0.5,0.9,1.5,0.5,2.3&#10;&#9;&#9;c-0.5,0.8-46.2,81.2-90.7,115.7v67.3C291.4,350.7,290.5,351.5,289.5,351.5C289.5,351.5,289.5,351.5,289.5,351.5z M204.9,347.9h82.8&#10;&#9;&#9;v-66.4c0-0.6,0.3-1.1,0.7-1.5c40.9-31.4,83.3-102.9,89.6-113.8l-21.4-16.1c-26.8,41.8-60.5,78.7-73.9,92.8&#10;&#9;&#9;c-0.3,0.4-0.8,0.6-1.3,0.6h-68.1c-0.5,0-1-0.2-1.3-0.6c-13.4-14.1-47.2-51.1-73.9-92.8l-21.4,16.1c6.2,10.7,47.3,80.1,87.6,112.2&#10;&#9;&#9;c0.4,0.3,0.7,0.9,0.7,1.4V347.9z"/>
	<rect x="238.2" y="241.6" class="st3_motivation-7-54" width="18.7" height="105.9"/>
	<path class="st1_motivation-7-54" d="M256.9,349.4h-18.7c-1,0-1.8-0.8-1.8-1.8l0,0v-106c0-1,0.8-1.8,1.8-1.8c0,0,0,0,0,0h18.7c1,0,1.8,0.8,1.8,1.8&#10;&#9;&#9;v106C258.7,348.6,257.9,349.4,256.9,349.4z M240,345.8h15V243.5h-15V345.8z"/>
	<path class="st4_motivation-7-54" d="M180.8,153.6c-0.6-3.6-0.9-7.2-1.1-10.9c-0.7-17.4-2.3-41.1,15.7-50.7c5.7-3,13.8-3.5,17.8,1.6&#10;&#9;&#9;c3.1-4.9,6.5-9.9,11.7-12.4c5.9-2.8,13-1.8,19.3-0.2c11.8,2.9,23.1,7.2,33.8,13c4.5,2.4,8.9,5.1,13.6,7c5.3,2,11,3,16.7,3.2&#10;&#9;&#9;c2.6,0,14-3.1,13.1-7.3c1.1,5.2,1.7,10.7,0.6,15.9s-3.9,10.3-8.5,13c7.5-2.3,13.9-7.4,17.6-14.4c1.6,4.6,0.9,9.8-1,14.4&#10;&#9;&#9;c-1.9,4.5-4.8,8.5-7.8,12.5l10.5-6.1c-2.3,8.5-8.2,15.3-14.4,21.2c-2.9,2.7-5.7,4.4-6.7,8.2c-1.1,4.4-1,9-2.4,13.4&#10;&#9;&#9;c-1.8,5.5-4.2,10.8-7.2,15.7c-11.6,19-32.1,31.9-54.6,31.9c-19.2,0-37.3-9.4-49.3-24.3c-6.3-7.9-10.9-17-13.5-26.8&#10;&#9;&#9;C183.1,165.5,181.8,159.6,180.8,153.6z"/>
	<path class="st1_motivation-7-54" d="M247.5,224.2c-19.1,0-38.1-9.3-50.7-25c-6.5-8.1-11.2-17.4-13.9-27.4c-1.7-5.9-3-11.8-4-17.9l0,0&#10;&#9;&#9;c-0.6-3.7-1-7.4-1.1-11.1l-0.1-1.8c-0.7-17.2-1.7-40.8,16.7-50.6c5.7-3,13.4-3.7,18.3,0.3c3-4.5,6.4-8.8,11.3-11.2&#10;&#9;&#9;c6.6-3.1,14.1-2,20.6-0.4c11.9,2.9,23.4,7.3,34.2,13.2c1,0.6,2.1,1.2,3.2,1.8c3.3,1.9,6.7,3.7,10.3,5.2c5.1,1.9,10.5,2.9,16,3&#10;&#9;&#9;c1.8,0.1,9-1.9,11-4.3c0.3-0.3,0.4-0.6,0.4-0.8l0,0c-0.1-1,0.5-1.9,1.5-2.1c0.9-0.1,1.8,0.4,2,1.3l0,0c1.4,6.8,1.6,11.9,0.6,16.6&#10;&#9;&#9;c-0.4,2.3-1.2,4.5-2.3,6.6c3.3-2.4,6.1-5.6,8-9.2c0.3-0.7,1-1.1,1.8-1c0.7,0.1,1.3,0.5,1.6,1.2c1.6,4.6,1.2,10.2-1,15.7&#10;&#9;&#9;c-0.9,2.1-1.9,4.1-3.1,6l3.3-1.9c0.6-0.4,1.4-0.3,2,0.1c0.6,0.4,0.8,1.2,0.6,1.9c-2.6,9.5-9.4,16.8-15,22c-0.6,0.6-1.2,1.1-1.9,1.6&#10;&#9;&#9;c-2.1,1.8-3.7,3.2-4.3,5.7c-0.4,1.9-0.8,3.8-1,5.8c-0.2,2.6-0.7,5.2-1.4,7.7c-1.8,5.6-4.3,11.1-7.4,16.1&#10;&#9;&#9;C291.4,211.6,269.9,224.2,247.5,224.2z M204.2,91.7c-2.8,0-5.5,0.7-8,2.1c-16.4,8.7-15.5,30-14.8,47.2l0.1,1.8&#10;&#9;&#9;c0.1,3.6,0.5,7.1,1.1,10.6l0,0c1,5.9,2.3,11.7,3.9,17.5c2.5,9.5,7,18.4,13.2,26.2c11.9,14.8,29.8,23.6,47.8,23.6&#10;&#9;&#9;c21,0,41.4-11.9,53-31c2.9-4.8,5.3-10,7-15.4c0.7-2.3,1.1-4.6,1.3-7c0.2-2.1,0.5-4.2,1-6.3c0.9-3.6,3.2-5.6,5.5-7.5&#10;&#9;&#9;c0.6-0.5,1.1-1,1.7-1.6c4.3-4,9.3-9.3,12.2-15.7l-6.1,3.6c-0.9,0.5-2,0.2-2.5-0.7c-0.4-0.6-0.3-1.4,0.1-2c2.7-3.6,5.7-7.6,7.5-12.1&#10;&#9;&#9;c1.2-2.8,1.8-5.8,1.7-8.8c-4,5.4-9.6,9.3-16,11.2c-1,0.3-2-0.3-2.2-1.3c-0.2-0.8,0.1-1.6,0.8-2c3.8-2.2,6.6-6.5,7.7-11.8&#10;&#9;&#9;c0.6-3.5,0.7-7,0.1-10.5c-3.7,2.3-7.8,3.7-12.2,4.1c-5.9-0.1-11.8-1.3-17.3-3.3c-3.7-1.5-7.3-3.3-10.7-5.4c-1-0.6-2.1-1.2-3.1-1.7&#10;&#9;&#9;c-10.5-5.7-21.7-10-33.3-12.8c-5.9-1.4-12.6-2.5-18.1,0.1c-4.7,2.3-7.9,6.9-11,11.8c-0.5,0.9-1.6,1.1-2.5,0.6&#10;&#9;&#9;c-0.2-0.1-0.4-0.3-0.5-0.4C210,92.6,207.2,91.7,204.2,91.7z"/>
	<path class="st0_motivation-7-54" d="M238.2,234.3h18.7l0,0v14.3c0,2.4-2,4.4-4.4,4.4l0,0h-9.9c-2.4,0-4.4-2-4.4-4.4l0,0V234.3L238.2,234.3z"/>
	<path class="st1_motivation-7-54" d="M249,254.8h-2.8c-5.4,0-9.7-4.4-9.7-9.7v-10.7c0-1,0.8-1.8,1.8-1.8c0,0,0,0,0,0h18.7c1,0,1.8,0.8,1.8,1.8&#10;&#9;&#9;c0,0,0,0,0,0V245C258.8,250.4,254.4,254.8,249,254.8C249,254.8,249,254.8,249,254.8z M240,236.1v8.9c0,3.4,2.7,6.1,6.1,6.1h2.9&#10;&#9;&#9;c3.4,0,6.1-2.7,6.1-6.1v-8.9H240z"/>
	<ellipse class="st0_motivation-7-54" cx="194.2" cy="185.8" rx="18.1" ry="15.6"/>
	<path class="st1_motivation-7-54" d="M194.2,203.2c-11,0-20-7.8-20-17.4s9-17.4,20-17.4s20,7.8,20,17.4S205.2,203.2,194.2,203.2z M194.2,172&#10;&#9;&#9;c-9,0-16.3,6.2-16.3,13.8s7.3,13.8,16.3,13.8s16.3-6.2,16.3-13.8S203.2,172,194.2,172L194.2,172z"/>
	<ellipse class="st0_motivation-7-54" cx="299.9" cy="185.8" rx="18.1" ry="15.6"/>
	<path class="st1_motivation-7-54" d="M299.9,203.2c-11,0-20-7.8-20-17.4s9-17.4,20-17.4s20,7.8,20,17.4S310.9,203.2,299.9,203.2z M299.9,172&#10;&#9;&#9;c-9,0-16.3,6.2-16.3,13.8s7.3,13.8,16.3,13.8s16.3-6.2,16.3-13.8S308.9,172,299.9,172L299.9,172z"/>
	<path class="st0_motivation-7-54" d="M286.6,129.9c-1.3-0.7-2.6-1.4-4-2c-8.1-3.6-16.5-6.4-25.1-8.3c5,7.7,2.8,17.9-4.9,22.8&#10;&#9;&#9;c-2.3,1.5-5,2.4-7.7,2.6c2.7-0.5,5.3-2.7,5.5-5.5c0.1-2.2-1.3-4.3-3.1-5.7c-6.5-5.1-16.3-2.5-23.6-6.4c-4.2-2.3-7-6.4-9.6-10.4&#10;&#9;&#9;c-0.7,12.2-4,25-11.8,34.6c-2.6,3.2-7.9,5.4-9.3,9.3c-2.1,6.2-0.2,14.7-0.2,21.2c0,30.2,24.5,54.7,54.7,54.7&#10;&#9;&#9;c14.3,0,27.9-5.6,38.2-15.5c11.5-11.2,15.5-24.9,16.6-40.5c0.6-6.7,0.4-13.5-0.4-20.1C300.5,150.3,296.3,135.5,286.6,129.9z"/>
	<path class="st1_motivation-7-54" d="M247.5,238.6c-31.2,0-56.5-25.3-56.5-56.6c0-1.9-0.2-4.1-0.4-6.4c-0.4-5.3-0.9-10.8,0.7-15.4&#10;&#9;&#9;c1-2.9,3.5-4.8,6-6.7c1.3-0.9,2.6-2,3.6-3.2c8.5-10.4,10.9-24,11.4-33.6c0-1,0.9-1.8,1.9-1.7c0.6,0,1.1,0.3,1.4,0.8&#10;&#9;&#9;c2.4,3.6,5.1,7.7,8.9,9.8c3,1.6,6.6,2,10.4,2.5c4.7,0.5,9.5,1.1,13.4,4.1c2.4,1.6,3.8,4.3,3.8,7.2c0,0.3-0.1,0.6-0.1,0.9&#10;&#9;&#9;c2-1.4,3.6-3.3,4.7-5.4c2.2-4.6,2-10.1-0.8-14.5c-0.5-0.8-0.3-2,0.6-2.5c0.4-0.3,0.9-0.3,1.4-0.2c8.7,2,17.2,4.8,25.4,8.4&#10;&#9;&#9;c1.4,0.6,2.8,1.3,4.1,2l0,0c11.6,6.7,15.2,24.6,16.2,32c0.8,6.8,1,13.7,0.4,20.5c-1.4,18.6-6.6,31.4-17.2,41.7&#10;&#9;&#9;C276.4,232.7,262.3,238.5,247.5,238.6z M215.5,122.2c-1.1,9.5-4.1,21.2-11.8,30.6c-1.3,1.4-2.7,2.7-4.3,3.8c-2.1,1.6-4.1,3.1-4.7,5&#10;&#9;&#9;c-1.3,3.9-0.9,9-0.5,13.9c0.2,2.4,0.4,4.6,0.4,6.6c0,29.2,23.7,52.9,52.9,52.9c13.8,0,27-5.4,36.9-15c9.9-9.6,14.8-21.7,16.1-39.3&#10;&#9;&#9;c0.6-6.6,0.4-13.2-0.4-19.8c-0.7-5.4-3.9-23.3-14.4-29.4l0,0c-1.2-0.7-2.5-1.3-3.8-1.9c-6.8-3-13.8-5.5-21-7.3&#10;&#9;&#9;c3.5,9.5-1.4,20-10.9,23.5c-1.6,0.6-3.2,0.9-4.9,1.1c-1,0.1-1.9-0.6-2-1.6c-0.1-1,0.6-1.9,1.6-2l0,0c1.9-0.4,3.9-1.9,4-3.8&#10;&#9;&#9;c-0.1-1.7-1-3.2-2.4-4.1c-3.1-2.4-7.2-2.9-11.6-3.4c-4-0.4-8.1-0.9-11.7-2.9C220,127.3,217.5,124.9,215.5,122.2L215.5,122.2z"/>
	<path class="st1_motivation-7-54" d="M249.7,203.2c-1.7,0-3.3-0.1-5-0.4c-1-0.1-1.7-1-1.6-2c0.1-1,1-1.7,2-1.6c0.1,0,0.1,0,0.2,0&#10;&#9;&#9;c2.4,0.4,4.8,0.4,7.2,0.1c0.1-1.6-1.7-6.8-4.3-11.7c-0.5-0.9-0.3-2,0.6-2.5c0.9-0.5,2-0.3,2.5,0.6c0,0.1,0.1,0.1,0.1,0.2&#10;&#9;&#9;c1.8,3.4,5.8,11.8,4.3,15.1c-0.4,0.8-1.1,1.5-2,1.7C252.4,203.1,251.1,203.3,249.7,203.2z"/>
	<path class="st1_motivation-7-54" d="M232.8,182.6c-1,0-1.8-0.8-1.8-1.8c0-3-2.4-5.4-5.4-5.4s-5.4,2.4-5.4,5.4c0,0,0,0,0,0c0,1-0.8,1.8-1.8,1.8&#10;&#9;&#9;c-1,0-1.8-0.8-1.8-1.8c0-5,4.1-9.1,9.1-9.1c5,0,9,4.1,9.1,9.1C234.6,181.8,233.8,182.6,232.8,182.6z"/>
	<path class="st1_motivation-7-54" d="M278.2,182.6c-1,0-1.8-0.8-1.8-1.8c0,0,0,0,0,0c0.1-3-2.2-5.5-5.2-5.7c-3-0.1-5.5,2.2-5.7,5.2&#10;&#9;&#9;c0,0.2,0,0.3,0,0.5c-0.1,1-0.9,1.8-1.9,1.7c-0.9-0.1-1.6-0.8-1.7-1.7c-0.2-5,3.8-9.2,8.8-9.4c5-0.2,9.2,3.8,9.4,8.8&#10;&#9;&#9;c0,0.2,0,0.4,0,0.6C280,181.8,279.2,182.6,278.2,182.6z"/>
	<path class="st1_motivation-7-54" d="M234.2,163.1c-0.2,0-0.3,0-0.5,0l-24.6-4.2c-1.6-0.3-2.6-1.8-2.4-3.4c0.3-1.6,1.8-2.6,3.4-2.3l24.6,4.2&#10;&#9;&#9;c1.6,0.3,2.6,1.8,2.4,3.3C236.9,162.2,235.7,163.2,234.2,163.1L234.2,163.1z"/>
	<path class="st1_motivation-7-54" d="M258.6,163.1c-1.6,0-2.9-1.3-2.9-2.9c0-1.4,1-2.6,2.4-2.9l24.6-4.2c1.6-0.3,3.1,0.8,3.4,2.3&#10;&#9;&#9;c0.3,1.6-0.8,3.1-2.4,3.4l-24.6,4.2C259,163.1,258.8,163.1,258.6,163.1z"/>
	<path class="st1_motivation-7-54" d="M250.4,214.4c-4.8,0-10.9-1.7-17.4-7.5c-0.7-0.7-0.7-1.9,0-2.6c0.7-0.6,1.7-0.7,2.4-0.1&#10;&#9;&#9;c12.9,11.5,23,4.6,23.4,4.4c0.8-0.6,2-0.4,2.6,0.4s0.4,2-0.4,2.6C257.8,213.5,254.1,214.5,250.4,214.4z"/>
</g>
<g id="arrows_motivation-7-54">
	<path class="st5_motivation-7-54" d="M412,281l-66.7,2.2l13.2,17.1l-117.6,82.6l-40.4-44.5c-4.7-5.2-12.4-6.1-18.3-2.3l-88.6,58.5&#10;&#9;&#9;c-6.6,4.2-8.6,12.9-4.4,19.5c4.2,6.6,12.9,8.6,19.5,4.4c0.1-0.1,0.3-0.2,0.4-0.3l78.5-51.8l40.6,44.8c4.8,5.3,12.8,6.2,18.6,2.1&#10;&#9;&#9;l128.9-90.5l12.2,15.8L412,281z"/>
	<path class="st1_motivation-7-54" d="M101.4,422.3c-8.8-0.1-15.9-7.3-15.9-16.1c0-5.3,2.7-10.2,7.1-13.2l88.6-58.5c6.6-4.4,15.3-3.3,20.6,2.6&#10;&#9;&#9;l39.3,43.3l114.8-80.6l-12-15.6c-0.4-0.5-0.5-1.3-0.2-1.9c0.3-0.6,0.9-1,1.6-1l66.7-2.2c0.6,0,1.2,0.3,1.5,0.8&#10;&#9;&#9;c0.4,0.5,0.4,1.2,0.2,1.7l-24.1,57.6c-0.3,0.6-0.8,1-1.4,1.1c-0.6,0.1-1.3-0.2-1.7-0.7l-11.1-14.5L248,414.7&#10;&#9;&#9;c-6.6,4.6-15.6,3.6-21-2.3l-39.6-43.6l-77.2,50.9C107.6,421.4,104.5,422.3,101.4,422.3z M190,335.6c-2.4,0-4.8,0.7-6.8,2.1&#10;&#9;&#9;l-88.6,58.5c-5.7,3.8-7.2,11.4-3.5,17.1c2.3,3.5,6.2,5.5,10.3,5.5c2.4,0,4.8-0.7,6.8-2l78.5-51.8c0.7-0.5,1.7-0.4,2.4,0.3&#10;&#9;&#9;l40.6,44.8c4.2,4.6,11.1,5.4,16.2,1.8l128.9-90.5c0.8-0.6,1.9-0.4,2.5,0.4l10.3,13.3l21.8-52.1l-60.3,2l11,14.3&#10;&#9;&#9;c0.6,0.8,0.5,1.9-0.3,2.5c0,0,0,0-0.1,0.1l-117.6,82.6c-0.7,0.5-1.8,0.4-2.4-0.3l-40.4-44.5C196.8,337,193.5,335.6,190,335.6z"/>
	<path class="st6_motivation-7-54" d="M98.8,356.6c-1,0-1.8-0.8-1.8-1.8c0-0.6,0.3-1.2,0.8-1.5c23.3-15.2,57.7-37.9,69.2-45.4l-20.2-3.2&#10;&#9;&#9;c-1-0.2-1.7-1.1-1.5-2.1c0.2-1,1.1-1.7,2.1-1.5l24.8,4c1,0.2,1.7,1.1,1.5,2.1c-0.1,0.5-0.4,0.9-0.8,1.2c-0.4,0.3-44.8,29.6-73,48&#10;&#9;&#9;C99.6,356.5,99.2,356.6,98.8,356.6z"/>
	<path class="st6_motivation-7-54" d="M165.9,330.6c-0.2,0-0.3,0-0.5-0.1c-1-0.3-1.5-1.2-1.3-2.2c0,0,0,0,0,0l6-22c0.3-1,1.3-1.5,2.3-1.3&#10;&#9;&#9;c1,0.3,1.5,1.3,1.3,2.3l-6,22C167.4,330,166.7,330.6,165.9,330.6z"/>
	<path class="st6_motivation-7-54" d="M332.3,271.6c-1,0-1.8-0.8-1.8-1.8c0-0.7,0.4-1.4,1.1-1.7c2.4-1.3,42.5-27.6,71.2-46.5l-14.8-2.4&#10;&#9;&#9;c-1-0.2-1.6-1.2-1.4-2.2c0.2-0.9,1.1-1.5,2-1.4l19.4,3.1c1,0.2,1.7,1.1,1.5,2.1c-0.1,0.5-0.4,0.9-0.8,1.2&#10;&#9;&#9;c-27.7,18.2-74.3,49-75.8,49.5C332.7,271.6,332.5,271.6,332.3,271.6z"/>
	<path class="st6_motivation-7-54" d="M403,239.5c-0.2,0-0.3,0-0.5-0.1c-1-0.3-1.5-1.3-1.3-2.2l4.7-17.2c0.3-1,1.3-1.5,2.3-1.3s1.5,1.3,1.3,2.3l0,0&#10;&#9;&#9;l-4.7,17.2C404.5,239,403.8,239.5,403,239.5z"/>
</g>
</svg>