<svg id="_0111_report_analysis_2" xmlns="http://www.w3.org/2000/svg" xmlns:xlink="http://www.w3.org/1999/xlink" viewBox="0 0 500 500" data-imageid="report-analysis-2-77" imageName="Report Analysis 2" class="illustrations_image" style="width: 151px;"><defs><style>.cls-1_report-analysis-2-77{fill:none;}.cls-1_report-analysis-2-77,.cls-2_report-analysis-2-77,.cls-3_report-analysis-2-77,.cls-4_report-analysis-2-77,.cls-5_report-analysis-2-77,.cls-6_report-analysis-2-77,.cls-7_report-analysis-2-77,.cls-8_report-analysis-2-77,.cls-9_report-analysis-2-77,.cls-10_report-analysis-2-77,.cls-11_report-analysis-2-77,.cls-12_report-analysis-2-77{stroke-width:0px;}.cls-2_report-analysis-2-77{fill:url(#linear-gradient);}.cls-3_report-analysis-2-77{isolation:isolate;opacity:.18;}.cls-3_report-analysis-2-77,.cls-12_report-analysis-2-77{fill:#68e1fd;}.cls-4_report-analysis-2-77{fill:url(#linear-gradient-4-report-analysis-2-77);}.cls-5_report-analysis-2-77{fill:url(#linear-gradient-2-report-analysis-2-77);}.cls-6_report-analysis-2-77{fill:url(#linear-gradient-3-report-analysis-2-77);}.cls-7_report-analysis-2-77{fill:url(#linear-gradient-7-report-analysis-2-77);}.cls-8_report-analysis-2-77{fill:url(#linear-gradient-5-report-analysis-2-77);}.cls-9_report-analysis-2-77{fill:url(#linear-gradient-6-report-analysis-2-77);}.cls-10_report-analysis-2-77{fill:#fff;}.cls-11_report-analysis-2-77{fill:#ffb4a3;}</style><linearGradient id="linear-gradient-report-analysis-2-77" x1="791.43" y1="2507.7" x2="836.77" y2="2445.02" gradientTransform="translate(-490.06 2759.34) scale(1 -1)" gradientUnits="userSpaceOnUse"><stop offset=".02" stop-color="#fff" stop-opacity="0"/><stop offset=".32" stop-color="#fff" stop-opacity=".39"/><stop offset=".68" stop-color="#fff" stop-opacity=".68"/><stop offset="1" stop-color="#fff"/></linearGradient><linearGradient id="linear-gradient-2-report-analysis-2-77" x1="650.01" y1="2401.47" x2="540.14" y2="2427.64" gradientTransform="translate(-490.06 2759.34) scale(1 -1)" gradientUnits="userSpaceOnUse"><stop offset="0" stop-color="#231f20" stop-opacity="0"/><stop offset="1" stop-color="#231f20"/></linearGradient><linearGradient id="linear-gradient-3-report-analysis-2-77" x1="749.93" y1="2409.38" x2="822.38" y2="2409.38" xlink:href="#linear-gradient-2-report-analysis-2-77"/><linearGradient id="linear-gradient-4-report-analysis-2-77" x1="869.36" y1="2885.65" x2="844.47" y2="2431.11" gradientTransform="translate(-471 2760.19) scale(1 -1)" gradientUnits="userSpaceOnUse"><stop offset=".02" stop-color="#fff" stop-opacity="0"/><stop offset=".14" stop-color="#fff" stop-opacity=".06"/><stop offset=".32" stop-color="#fff" stop-opacity=".39"/><stop offset=".68" stop-color="#fff" stop-opacity=".68"/><stop offset="1" stop-color="#fff"/></linearGradient><linearGradient id="linear-gradient-5-report-analysis-2-77" x1="944.44" y1="2882.06" x2="919.57" y2="2427.52" gradientTransform="translate(-471 2760.19) scale(1 -1)" xlink:href="#linear-gradient-report-analysis-2-77"/><linearGradient id="linear-gradient-6-report-analysis-2-77" x1="590.88" y1="2946.73" x2="566" y2="2492.18" gradientTransform="translate(-471 2760.19) scale(1 -1)" xlink:href="#linear-gradient-report-analysis-2-77"/><linearGradient id="linear-gradient-7-report-analysis-2-77" x1="565.88" y1="2817.44" x2="541.01" y2="2362.9" gradientTransform="translate(-471 2760.19) scale(1 -1)" xlink:href="#linear-gradient-report-analysis-2-77"/></defs><path id="background_report-analysis-2-77" class="cls-3_report-analysis-2-77 targetColor" d="M490.67,320.47c-8.85,16.69-24.89,29.71-29.34,48.08-1.92,7.92-1.48,16.27-2.46,24.34-3.49,28.41-24.79,52.09-50.18,65.51-1.07.58-2.15,1.16-3.22,1.65-16.67,8.13-34.72,12.57-53.13,15.35-11.19,1.66-22.51,2.72-33.7,3.61-46.72,3.69-93.51,5.03-140.36,4.03-22.64-.46-45.73-1.53-67.01-9.05-1.09-.37-2.17-.78-3.25-1.16-17.27-6.7-32.61-17.72-46.18-30.33l-.63-.58c-20.24-18.92-36.99-41.83-47.8-67.29-15.44-36.44-18.12-77.02-7.61-115.17,6.4-22.68,17.58-44.32,19.31-67.81,1.3-17.66-2.86-35.56-.09-53.05,5.44-34.77,37.72-60.34,71.81-68.9,34.09-8.55,69.96-3.75,104.78,1.16,17,2.43,36.91,8.91,53.74,3.72,20.7-6.37,38.09-14.3,60.42-14.35,9.11,0,18.39.95,26.73,4.65,10.11,4.42,18.13,12.43,26.34,19.75,22.93,20.54,49.07,37.18,72.5,57.17,23.43,19.99,44.67,44.26,53.29,73.81,4.22,14.44,5.25,29.63,5.71,44.67.64,20.54-.02,42.02-9.67,60.17Z" style="fill: rgb(184, 227, 255);"/><g id="data_graphic_report-analysis-2-77"><rect class="cls-12_report-analysis-2-77 targetColor" x="115.97" y="197.1" width="274.59" height="195.57" rx="18.48" ry="18.48" style="fill: rgb(184, 227, 255);"/><rect class="cls-10_report-analysis-2-77" x="132.73" y="211.07" width="241.07" height="163.65"/><rect class="cls-12_report-analysis-2-77 targetColor" x="162.27" y="240.74" width="7.18" height="65.72" style="fill: rgb(184, 227, 255);"/><rect class="cls-12_report-analysis-2-77 targetColor" x="174.77" y="251.49" width="7.18" height="54.97" style="fill: rgb(184, 227, 255);"/><rect class="cls-12_report-analysis-2-77 targetColor" x="187.01" y="261.3" width="7.18" height="45.16" style="fill: rgb(184, 227, 255);"/><rect class="cls-12_report-analysis-2-77 targetColor" x="199.51" y="251.49" width="7.18" height="54.97" style="fill: rgb(184, 227, 255);"/><rect class="cls-12_report-analysis-2-77 targetColor" x="211.76" y="273.59" width="7.18" height="32.86" style="fill: rgb(184, 227, 255);"/><rect class="cls-12_report-analysis-2-77 targetColor" x="224.26" y="251.49" width="7.18" height="54.97" style="fill: rgb(184, 227, 255);"/><rect class="cls-12_report-analysis-2-77 targetColor" x="236.5" y="267.99" width="7.18" height="38.47" style="fill: rgb(184, 227, 255);"/><rect class="cls-12_report-analysis-2-77 targetColor" x="249" y="260.59" width="7.18" height="45.88" style="fill: rgb(184, 227, 255);"/><rect class="cls-12_report-analysis-2-77 targetColor" x="159.08" y="327.22" width="41.11" height="2.39" style="fill: rgb(184, 227, 255);"/><rect class="cls-12_report-analysis-2-77 targetColor" x="159.08" y="333.87" width="41.11" height="2.39" style="fill: rgb(184, 227, 255);"/><rect class="cls-12_report-analysis-2-77 targetColor" x="159.08" y="340.51" width="41.11" height="2.39" style="fill: rgb(184, 227, 255);"/><rect class="cls-12_report-analysis-2-77 targetColor" x="159.08" y="347.17" width="41.11" height="2.39" style="fill: rgb(184, 227, 255);"/><rect class="cls-12_report-analysis-2-77 targetColor" x="159.08" y="353.82" width="41.11" height="2.39" style="fill: rgb(184, 227, 255);"/><rect class="cls-1_report-analysis-2-77" x="214.95" y="327.22" width="41.11" height="29.54"/><path class="cls-12_report-analysis-2-77 targetColor" d="M306.95,236.42c-14.76-.04-26.76,11.88-26.81,26.64-.04,14.76,11.88,26.76,26.64,26.81h0v-9.3h-.1c-9.77,0-17.7-7.91-17.71-17.69,0-9.77,7.91-17.7,17.69-17.71,9.77,0,17.7,7.91,17.71,17.69h0c0,.86-.06,1.71-.19,2.54h9.4c.07-.77.1-1.53.1-2.27,0-14.76-11.97-26.73-26.73-26.73h-.01Z" style="fill: rgb(184, 227, 255);"/><path class="cls-12_report-analysis-2-77 targetColor" d="M333.59,265.43c-1.17,13.84-12.75,24.47-26.63,24.47h-.16v-9.3c8.77-.04,16.18-6.49,17.43-15.16h9.37Z" style="fill: rgb(184, 227, 255);"/><path class="cls-2_report-analysis-2-77" d="M333.59,265.43c-1.17,13.84-12.75,24.47-26.63,24.47h-.16v-9.3c8.77-.04,16.18-6.49,17.43-15.16h9.37Z"/></g><g id="shadow_report-analysis-2-77"><path class="cls-5_report-analysis-2-77" d="M130.64,315.28c-2.82,2.02-6.57,2.32-9.53,4.08-2.81,1.94-4.93,4.73-6.04,7.96-2.77,6.82-3.17,14.35-3.14,21.71,0,7.77-.12,16.43,1.67,24.03.49,2.09,3.74,11.28,6.9,10.93,2-.22,3.72-37.06,4.46-41.83.74-4.78,1.58-9.3,2.57-13.94.5-2.3,1.27-11.61,3.1-12.93Z"/><path class="cls-6_report-analysis-2-77" d="M290.72,379.29c.16-3.49.88-7.54-1.52-10.09-1.2-1.03-2.55-1.87-4.01-2.48-4.94-2.73-8.25-7.68-8.89-13.28-.3-2.96.17-5.96,0-8.95-.27-6.09-3.06-11.78-6.3-16.95s-6.97-10.04-9.6-15.56c-.55-1.16-.92-2.8.14-3.49s2.49.28,3.42,1.16c10.07,10.35,21.23,19.92,34.01,26.55,3.95,2.06,8.08,3.82,11.74,6.36,6.09,4.23,10.62,10.46,13.94,17.06,3.32,6.6,5.45,13.79,7.6,20.92.79,2.6,1.57,5.44.65,7.99-.24.79-.75,1.48-1.44,1.93-.67.32-1.4.48-2.14.46-9.3.51-18.67.52-28.03.64-2.32,0-5.08.55-6.97-1.09-2.67-2.37-2.75-8.02-2.6-11.19Z"/></g><g id="hand_report-analysis-2-77"><path class="cls-11_report-analysis-2-77" d="M127.32,302.68c1.63-.95,3.56-1.28,5.41-.94,2.13.79,3.59,2.76,3.72,5.03.1,2.2-.38,4.39-1.41,6.34-3.39,7.39-9.51,13.22-13.28,20.42-2.35,4.48-3.75,9.39-4.11,14.43-.37,5.25-.2,11.62-4.75,14.3-3.23,1.85-7.56.59-10.19-2.06s-3.89-6.33-4.76-9.95c-4.78-20.39-.11-41.84,12.7-58.4.99-1.27,2.67-2.6,4.01-1.71.71.65,1.1,1.57,1.07,2.53.28,2.77-1.07,12.9,1.31,14.71,2.61,1.92,7.44-3.37,10.28-4.72Z"/><path class="cls-12_report-analysis-2-77 targetColor" d="M112.22,465.69l1.96-15.69c-.99,7.9-1.95,15.8-2.94,23.72v.29c-1.09-.37-2.17-.78-3.25-1.16-17.27-6.7-32.61-17.72-46.18-30.33l-.63-.58c2.88-11.83,6.18-23.58,9.48-35.28,5.21-18.49,9.3-39.71,21.71-54.35,2.01-2.32,5.81-1.63,8.74-.58,2.93,1.05,6.11,2.32,9.11,3.49,1.93.62,3.66,1.77,4.97,3.32,1.24,1.74,1.38,4.01,1.46,6.16,1.35,33.73-.13,67.51-4.44,100.99Z" style="fill: rgb(184, 227, 255);"/><path class="cls-12_report-analysis-2-77 targetColor" d="M408.69,458.41c-1.07.58-2.15,1.16-3.22,1.65-16.67,8.13-34.72,12.57-53.13,15.35-9.94-21.33-20.37-43.78-34.21-62.62-4.65-6.32-9.39-11.77-12.27-19.2-2.16-5.55-5.26-12.78-5.81-18.67-.52-6.31,4.06-9.53,8.62-13.21,10.3-8.32,22.25-14.37,35.06-17.76,1.1-.43,2.31-.46,3.43-.08.96.58,1.71,1.44,2.15,2.48l35.81,65.42c7.91,14.44,15.84,28.91,22.44,44.01.37.89.8,1.75,1.13,2.64Z" style="fill: rgb(184, 227, 255);"/><path class="cls-11_report-analysis-2-77" d="M284.83,357.21c-2.77-4.87-.89-10.95-1.22-16.55-.56-9.3-7.19-16.9-12.32-24.68-2.24-3.39-4.3-7.24-3.96-11.29.12-1.45.86-3.15,2.32-3.29.66-.02,1.31.16,1.87.51,2.29,1.18,4.36,2.75,6.11,4.65,2.03,2.2,4.23,5.08,7.2,4.73,1.21-.26,2.35-.75,3.38-1.44,3.94-2.11,8.45-2.82,12.86-3.49l5.62-.87c4.57-.71,9.3-1.41,13.77-.44,5.17,1.16,9.64,4.39,12.35,8.95,3.95,6.72,3.49,15.11,5.81,22.51.93,2.91,2.32,5.67,3.08,8.62.96,2.93.77,6.12-.51,8.92-1.79,3.33-5.62,5.04-9.3,5.87s-7.58,1.01-11.07,2.46c-2.96,1.22-5.51,3.27-8.3,4.82-6.52,3.64-8.99.49-14.92-2.01-4.59-1.93-10.11-3.35-12.79-7.98Z"/></g><g id="bubble_report-analysis-2-77"><rect class="cls-4_report-analysis-2-77" x="338.41" y="150" width="85.15" height="83.55" rx="9.04" ry="9.04"/><rect class="cls-8_report-analysis-2-77" x="407.06" y="271.34" width="85.15" height="83.55" rx="9.04" ry="9.04"/><rect class="cls-9_report-analysis-2-77" x="59.83" y="90.94" width="85.15" height="83.55" rx="9.04" ry="9.04"/><rect class="cls-7_report-analysis-2-77" x="35.05" y="216.19" width="85.15" height="83.55" rx="9.04" ry="9.04"/><polygon class="cls-12_report-analysis-2-77 targetColor" points="295.66 243.7 294.71 243.45 310.56 182.53 339.14 182.53 339.14 183.52 311.32 183.52 295.66 243.7" style="fill: rgb(184, 227, 255);"/><polygon class="cls-12_report-analysis-2-77 targetColor" points="406.33 323.42 349.09 323.42 321.85 276.17 322.7 275.67 349.66 322.43 406.33 322.43 406.33 323.42" style="fill: rgb(184, 227, 255);"/><polygon class="cls-12_report-analysis-2-77 targetColor" points="199.05 251.64 167.64 153.11 143.11 153.11 143.11 152.12 168.35 152.12 168.47 152.47 199.99 251.34 199.05 251.64" style="fill: rgb(184, 227, 255);"/><polygon class="cls-12_report-analysis-2-77 targetColor" points="162.84 288.97 140.5 264.07 118.59 264.07 118.59 263.09 140.94 263.09 163.57 288.32 162.84 288.97" style="fill: rgb(184, 227, 255);"/></g></svg>