<svg version="1.1" id="Layer_1" xmlns="http://www.w3.org/2000/svg" xmlns:xlink="http://www.w3.org/1999/xlink" x="0px" y="0px" viewBox="0 0 500 500" style="width: 141px;" xml:space="preserve" data-imageid="relaxing-40" imageName="Relaxing" class="illustrations_image">
<style type="text/css">
	.st0_relaxing-40{fill:#FFFFFF;}
	.st1_relaxing-40{fill:#093F68;}
	.st2_relaxing-40{fill:#FFC9B0;}
	.st3_relaxing-40{fill:#725858;}
	.st4_relaxing-40{fill:#F56132;}
	.st5_relaxing-40{fill:#68E1FD;}
</style>
<g id="character_relaxing-40">
	<path class="st0_relaxing-40" d="M211.7,174.3L81.9,206.4c0,0,17.6,49.4,31.5,72.3S251,261.6,251,261.6L211.7,174.3z"/>
	<path class="st1_relaxing-40" d="M136.5,287.6c-13.2,0-21.4-2.7-24.7-8C98,256.8,80.3,207.5,80.1,207c-0.3-1,0.2-2,1.1-2.3c0.1,0,0.1,0,0.2-0.1&#10;&#9;&#9;l129.8-32.1c0.9-0.2,1.7,0.2,2.1,1l39.3,87.3c0.2,0.5,0.2,1,0,1.5c-0.2,0.5-0.6,0.8-1.1,1c-0.3,0.1-31.4,10.1-63.7,17.2&#10;&#9;&#9;C166.1,285.2,149,287.6,136.5,287.6z M84.3,207.7c3.4,9.3,18.5,50.1,30.7,70c10.6,17.4,98.1-6,133.5-17.3l-37.9-84L84.3,207.7z"/>
	<path class="st2_relaxing-40" d="M222.4,227.8c2.9-1.2,24.5-21.4,24.5-21.4l-33.1-6.9l3.6-17.9c0,0,35.8-0.9,50.5,13&#10;&#9;&#9;c7.9,7.4,12.4,16.1,2.9,27.8c-6.4,7.9-39.7,40-39.7,40L222.4,227.8z"/>
	<path class="st1_relaxing-40" d="M231.1,264.1c-0.2,0-0.3,0-0.5-0.1c-0.6-0.2-1.1-0.7-1.3-1.3l-8.7-34.5c-0.2-0.9,0.2-1.8,1.1-2.1&#10;&#9;&#9;c1.6-0.7,11.7-9.6,21.3-18.6l-29.6-6.2c-1-0.2-1.6-1.2-1.4-2.2l3.6-17.9c0.2-0.8,0.9-1.4,1.8-1.5c1.5,0,36.7-0.8,51.8,13.4&#10;&#9;&#9;c6.7,6.3,14.3,16.4,3,30.3c-6.4,7.9-38.5,38.8-39.9,40.1C232,263.9,231.5,264.1,231.1,264.1z M224.5,228.6l7.6,30.1&#10;&#9;&#9;c7.6-7.4,32-31,37.3-37.6c7.3-9,6.5-16.6-2.7-25.4c-12.4-11.6-41-12.4-47.8-12.4l-3,14.7l31.3,6.6c0.7,0.1,1.2,0.6,1.4,1.3&#10;&#9;&#9;c0.2,0.7,0,1.4-0.5,1.8C243.6,212,229.5,225,224.5,228.6L224.5,228.6z"/>
	<path class="st2_relaxing-40" d="M357.6,253.4c1-0.5,16-9,16-9s-3.6-21.8-1.6-22.8s21.7,39.8,21.7,39.8l-31.5,14L357.6,253.4z"/>
	<path class="st1_relaxing-40" d="M362.2,277.3c-0.3,0-0.6-0.1-0.8-0.2c-0.5-0.2-0.9-0.7-1-1.2l-4.6-22c-0.2-0.8,0.3-1.6,1-2&#10;&#9;&#9;c0.7-0.3,8.9-5,14.8-8.4c-3.5-21.8-1.5-22.9-0.4-23.4c0.5-0.2,1.1-0.3,1.6-0.1c2.4,0.8,10,14.5,22.6,40.8c0.4,0.9,0.1,2-0.8,2.4&#10;&#9;&#9;c0,0,0,0-0.1,0l-31.5,14C362.7,277.2,362.5,277.3,362.2,277.3z M359.6,254.4l3.9,18.4l27.7-12.3c-6.8-14.1-14.4-28.8-18-34.7&#10;&#9;&#9;c0.4,6.1,1.1,12.2,2.2,18.2c0.1,0.8-0.2,1.5-0.9,1.9C373.2,246.7,363.3,252.4,359.6,254.4L359.6,254.4z"/>
	<path class="st1_relaxing-40" d="M278.4,295.4c2.6-0.5,81.2-45.5,81.2-45.5l21.2,28.8c0,0-76,54.4-91.5,43.1s-8.8-31.5-8.8-31.5"/>
	<path class="st1_relaxing-40" d="M295,325c-2.4,0.1-4.8-0.5-6.9-1.8c-10.4-7.6-11.4-19-10.8-26.3c-0.8-0.6-1.1-1.7-0.5-2.6&#10;&#9;&#9;c0.2-0.3,0.5-0.6,0.9-0.7c0.2-1.4,0.5-2.7,0.9-4c0.3-1,1.4-1.5,2.3-1.2s1.5,1.4,1.2,2.3c0,0.1-0.1,0.3-0.2,0.8&#10;&#9;&#9;c12.6-6.7,50.5-28.3,76.7-43.3c0.8-0.5,1.8-0.3,2.4,0.5l21.2,28.8c0.6,0.8,0.4,1.9-0.4,2.5c0,0,0,0,0,0&#10;&#9;&#9;C374.9,285.2,318.5,325,295,325z M281.1,296c-0.8,6.4-0.4,17.1,9.3,24.2c3.3,2.4,14,3.3,49.6-17.4c17.3-10,33.4-21.2,38.3-24.6&#10;&#9;&#9;l-19.1-26C337.2,264.8,292,290.5,281.1,296L281.1,296z"/>
	<path class="st1_relaxing-40" d="M117.9,280.5L117.9,280.5c-1.1,0-1.9-0.9-1.8-1.9c0,0,0,0,0,0c1.4-36.3-20.9-64-21.2-64.3&#10;&#9;&#9;c-0.6-0.8-0.4-2,0.4-2.6c0.8-0.6,1.8-0.4,2.4,0.3c1,1.2,23.4,29.1,22,66.8C119.7,279.7,118.9,280.5,117.9,280.5z"/>
	<path class="st2_relaxing-40" d="M177,242.9l45.4-15.1c5.5,0.9-2,22.8,8.7,34.5s-10.4,28.6-10.4,28.6l-21.4,4.5c0,0-4.5-16.5-11.8-26.9"/>
	<path class="st1_relaxing-40" d="M199.3,297.2c-0.8,0-1.5-0.6-1.8-1.4c0-0.2-4.6-16.4-11.5-26.3c-0.5-0.9-0.2-2,0.7-2.5&#10;&#9;&#9;c0.8-0.4,1.7-0.3,2.3,0.4c6,8.7,10.2,21.3,11.5,25.8l19.3-4c1.9-1.6,11.7-10.3,12.3-18.5c0.2-2.6-0.7-5.2-2.5-7.1&#10;&#9;&#9;c-6.7-7.3-6.8-18-6.8-25.9c0-2.8,0-6.8-0.7-7.9l-44.6,14.8c-1,0.4-2-0.1-2.4-1.1c-0.4-1,0.1-2,1.1-2.4c0,0,0.1,0,0.1,0l45.4-15.1&#10;&#9;&#9;c0.3-0.1,0.6-0.1,0.9-0.1c3.8,0.6,3.9,5.5,3.9,11.6c0,7.2,0.1,17.1,5.9,23.4c2.5,2.7,3.8,6.3,3.5,9.9c-0.8,10.7-13.5,21-14,21.4&#10;&#9;&#9;c-0.2,0.2-0.5,0.3-0.8,0.4l-21.4,4.5C199.6,297.2,199.4,297.2,199.3,297.2z"/>
	<path class="st3_relaxing-40" d="M136.4,213.1c-3.5-0.1-6.9-0.9-10-2.3c-5.8-2.8-10.3-7.7-14.6-12.5c4.9-0.5,9.2-3.4,11.6-7.6&#10;&#9;&#9;c-7.3,3.5-15.7,4.3-23.6,2.1c6.1-2.7,8.5-10.2,8.8-17s-0.6-13.7,1.8-20c3.1-8.2,9.4-10.4,17.1-12.4c-4.4-12.2-1-26.2,11.8-31.3&#10;&#9;&#9;c20.5-8.2,40.1,10.1,51.2,4.5s12.4-11.8,12.4-11.8c6.6,6.3,8.8,15.9,5.5,24.5c0,0,8.3-5.8,13.6,6.1s9,46.9,9,46.9l-8.8,1.4&#10;&#9;&#9;c-3.7,0.6-7.8,2.9-11.3,4.2l-25.8,9.7C172.2,202.3,152.4,213.6,136.4,213.1z"/>
	<path class="st1_relaxing-40" d="M137.6,214.9h-1.2l0,0c-3.7-0.1-7.4-0.9-10.8-2.5c-6.2-3-11-8.3-15.2-12.9c-0.5-0.5-0.6-1.2-0.4-1.9&#10;&#9;&#9;c0.3-0.6,0.8-1.1,1.5-1.2c1.7-0.2,3.3-0.7,4.7-1.4c-5.6,1.2-11.5,1-17-0.5c-1-0.3-1.5-1.3-1.3-2.3c0.1-0.5,0.5-1,1-1.2&#10;&#9;&#9;c6.4-2.9,7.6-11.7,7.8-15.4c0.1-1.8,0.1-3.7,0.1-5.5c0-5,0-10.2,1.8-15c3.2-8.3,9.5-11.1,16.4-13c-3.5-12-0.2-26.2,13.5-31.7&#10;&#9;&#9;c12.1-4.8,23.9-0.9,33.5,2.3c7.2,2.4,13.4,4.4,17.6,2.3c10-5.1,11.5-10.6,11.5-10.7c0.2-0.6,0.6-1.1,1.2-1.3&#10;&#9;&#9;c0.6-0.2,1.3-0.1,1.8,0.3c0.1,0.1,10.1,9,7.1,22.8c1.4-0.3,2.9-0.2,4.4,0.1c3.3,0.9,6.1,3.7,8.1,8.2c5.3,12,9,46,9.2,47.4&#10;&#9;&#9;c0.1,1-0.6,1.9-1.6,2l-8.8,1.4l0,0c-2.5,0.6-5,1.4-7.3,2.6c-1.3,0.6-2.5,1.1-3.7,1.6l-25.8,9.7c-3.2,1.2-6.9,2.8-10.8,4.6&#10;&#9;&#9;C163.7,208.7,149.7,214.9,137.6,214.9z M115.3,199.4c3.5,3.8,7.3,7.4,11.9,9.7c2.9,1.4,6.1,2.1,9.3,2.1l0,0&#10;&#9;&#9;c11.6,0.4,25.7-5.8,37-10.9c4-1.8,7.7-3.4,11-4.6l25.8-9.7c1.1-0.4,2.3-0.9,3.5-1.5c2.6-1.3,5.4-2.3,8.2-2.9v0.1&#10;&#9;&#9;c1.2-0.3,3.3-0.7,7.1-1.3c-0.8-7.2-4.2-34.6-8.7-44.6c-1.5-3.5-3.4-5.6-5.7-6.2c-1.8-0.4-3.6-0.1-5.2,0.9c-0.8,0.6-2,0.4-2.6-0.5&#10;&#9;&#9;c-0.3-0.5-0.4-1.1-0.2-1.7c2.7-6.9,1.5-14.8-3.2-20.5c-1.6,2.6-5,6.6-12.2,10.3c-5.6,2.8-12.5,0.6-20.4-2.1&#10;&#9;&#9;c-9.4-3.1-20.1-6.7-30.9-2.3c-12.2,4.9-14.7,18.3-10.8,29c0.3,0.9-0.1,2-1.1,2.4c-0.1,0-0.1,0-0.2,0.1c-7.2,1.7-12.9,3.7-15.8,11.2&#10;&#9;&#9;c-1.6,4.2-1.6,8.8-1.6,13.7c0,1.9,0,3.8-0.1,5.7c-0.2,3.6-1.2,11.3-6.1,16c6.2,0.9,12.5-0.1,18.2-2.8c0.9-0.4,2-0.1,2.5,0.8&#10;&#9;&#9;c0.3,0.5,0.3,1.2,0,1.7C122.9,195.3,119.4,198.1,115.3,199.4z"/>
	<path class="st4_relaxing-40" d="M167.7,245.7c0.3-0.1,8.4-3.2,9.3-2.9s10.2,28.7,32.9,22c15.2-4.5,4.7-32.1,4.7-34.4l7.7-2.6&#10;&#9;&#9;c10.9,12.6,17.4,36.9,18.8,52.8c0.8,8.5,2.6,17.1,9.9,38.4l-70.6,24l-19.1-56.2C171.2,282.1,178.1,271,167.7,245.7z"/>
	<path class="st1_relaxing-40" d="M180.4,344.7c-0.8,0-1.5-0.5-1.7-1.2c-19.1-56.2-19.1-56.2-19.1-56.2c-0.3-0.9,0.2-1.8,1-2.2&#10;&#9;&#9;c11.9-5.6,13.7-18.5,5.5-38.6c-0.4-0.9,0.1-2,1-2.4c0,0,0,0,0,0c0.1,0,8.8-3.7,10.7-2.9c0.8,0.3,1,0.8,1.8,2.4&#10;&#9;&#9;c7.8,16.5,17.9,23.1,30,19.5c11-3.2,6-22.2,4.1-29.3c-0.4-1.1-0.6-2.2-0.7-3.4c0-0.8,0.5-1.5,1.2-1.7l7.6-2.6c0.7-0.2,1.5,0,2,0.5&#10;&#9;&#9;c10.6,12.2,17.7,36.3,19.2,53.8c0.7,8.1,2.5,16.5,9.8,37.9c0.3,1-0.2,2-1.1,2.3l-70.6,24C180.8,344.7,180.6,344.7,180.4,344.7z&#10;&#9;&#9; M163.6,287.6c2.7,7.9,15.1,44.5,18,53l67.1-22.8c-6.9-20.5-8.6-28.9-9.4-37c-1.5-16.5-7.9-38.9-17.6-50.8l-5,1.7&#10;&#9;&#9;c0.1,0.4,0.2,0.8,0.3,1.2c2.1,8.1,7.8,29.5-6.6,33.7c-14.1,4.2-25.6-3.1-34.3-21.4c0-0.1-0.1-0.2-0.1-0.3c-1.4,0.4-4.1,1.3-5.9,2&#10;&#9;&#9;C179.8,271.8,172.4,282.8,163.6,287.6z"/>
	<polyline class="st2_relaxing-40" points="190.6,242.7 187.4,234.2 202.1,228.5 205.4,237 &#9;"/>
	<path class="st1_relaxing-40" d="M190.6,244.6c-0.8,0-1.4-0.5-1.7-1.2l-3.3-8.5c-0.4-0.9,0.1-2,1.1-2.4l14.8-5.7c0.5-0.2,1-0.2,1.4,0&#10;&#9;&#9;c0.5,0.2,0.8,0.5,1,1l3.3,8.5c0.4,0.9,0,2-0.9,2.4s-2,0-2.4-0.9c0-0.1,0-0.1-0.1-0.2l-2.6-6.8l-11.3,4.4l2.6,6.8&#10;&#9;&#9;c0.4,0.9-0.1,2-1.1,2.4C191.1,244.5,190.9,244.5,190.6,244.6z"/>
	<path class="st2_relaxing-40" d="M152.1,203.6c2.6,6.8-1.6,14.9-9.6,17.9s-17.8-3.6-20.5-10.4s3-11.3,11-14.3S149.4,196.8,152.1,203.6z"/>
	<path class="st1_relaxing-40" d="M138.4,224.1c-7.6,0-15.6-5.8-18.1-12.4c-2.7-7,1.3-12.6,12-16.7c8.8-3.4,18.5,0.1,21.5,7.9l0,0&#10;&#9;&#9;c3,7.8-1.8,16.9-10.6,20.3C141.7,223.8,140,224.1,138.4,224.1z M139.2,197.4c-1.9,0-3.8,0.4-5.6,1.1c-11.3,4.4-11.1,8.9-9.9,11.9&#10;&#9;&#9;c2.4,6.3,11.4,12,18.1,9.4c7-2.7,10.8-9.6,8.5-15.5l0,0C148.7,200,144.2,197.4,139.2,197.4z"/>
	<path class="st2_relaxing-40" d="M234.3,167.8c2.6,6.9-0.3,18.4-8.2,21.5s-16.5,0-19.1-6.9s1.6-14.9,9.6-17.9S231.6,161,234.3,167.8z"/>
	<path class="st1_relaxing-40" d="M219.9,192.4c-2,0-4-0.3-5.9-1c-7.3-2.4-11.3-10.2-8.9-17.5c0.3-0.9,0.7-1.8,1.2-2.6c2.1-3.9,5.6-6.8,9.7-8.4&#10;&#9;&#9;c4.7-1.8,8.5-2.5,11.7-2.2c3.8,0.3,7.1,2.9,8.4,6.5l0,0c3.1,8-0.6,20.6-9.2,23.9C224.6,191.9,222.2,192.4,219.9,192.4z M226,164.3&#10;&#9;&#9;c-3,0.1-6,0.8-8.8,2c-3.3,1.2-6.1,3.6-7.8,6.7c-2.9,4.9-1.2,11.1,3.6,14c0.7,0.4,1.4,0.7,2.1,0.9c3.3,1.1,7,1,10.2-0.3&#10;&#9;&#9;c6.7-2.6,9.6-12.8,7.1-19.1c-0.8-2.4-2.9-4-5.4-4.2C226.8,164.3,226.4,164.3,226,164.3L226,164.3z"/>
	<path class="st2_relaxing-40" d="M195.5,233.3L195.5,233.3c-23.9,9.2-50.8-2.8-59.9-26.7c0,0,0,0,0,0l-7.7-20.1c-4-10.4,4.3-36,14.7-40&#10;&#9;&#9;c0,0,5.5,9.2,25.1,11.5c13.8,1.6,30-4.2,40.7-20l13.6,35.2C231.2,197.2,219.4,224,195.5,233.3z"/>
	<path class="st1_relaxing-40" d="M178.8,238.2c-20-0.1-37.8-12.4-45-31l-7.7-20.1c-2.5-6.4-0.6-16.4,2-23.7c3.4-9.7,8.6-16.7,13.8-18.7&#10;&#9;&#9;c0.8-0.3,1.8,0,2.2,0.8c0,0.1,5.4,8.5,23.8,10.6c11.6,1.4,28-3,39-19.2c0.6-0.8,1.7-1,2.6-0.5c0.3,0.2,0.5,0.5,0.7,0.8l13.6,35.3&#10;&#9;&#9;c9.6,24.8-2.7,52.8-27.6,62.4C190.7,237.1,184.8,238.2,178.8,238.2L178.8,238.2z M142,148.8c-3.8,2.2-7.8,8.2-10.5,15.9&#10;&#9;&#9;c-2.9,8.3-3.7,16.6-2,21.1l7.7,20.1c8.3,23.1,33.8,35.2,56.9,26.9c23.1-8.3,35.2-33.8,26.9-56.9c-0.2-0.7-0.5-1.3-0.8-2l-12.4-32.1&#10;&#9;&#9;c-11.9,15.4-28.4,19.5-40.5,18.1C151.5,158,144.4,151.6,142,148.8z"/>
	<path class="st1_relaxing-40" d="M185.9,167.3c-2,0-3.7-1.6-3.7-3.6c0-1.5,0.9-2.9,2.4-3.5l19.1-7.2c1.9-0.7,4,0.2,4.7,2.1s-0.2,4-2.1,4.7l0,0&#10;&#9;&#9;l-19.1,7.2C186.8,167.3,186.4,167.3,185.9,167.3z"/>
	<path class="st1_relaxing-40" d="M139.6,185.2c-2,0-3.7-1.6-3.7-3.6c0-1.5,0.9-2.9,2.4-3.5l19.1-7.2c1.9-0.7,4,0.2,4.7,2.1s-0.2,4-2.1,4.7&#10;&#9;&#9;l-19.1,7.3C140.5,185.1,140,185.2,139.6,185.2z"/>
	<path class="st1_relaxing-40" d="M184.5,201.8c-1,0-1.8-0.9-1.8-1.9c0-0.9,0.6-1.6,1.5-1.8c1.9-0.4,3.7-1,5.5-1.9c-0.6-1.4-3.5-4.8-6.8-7.6&#10;&#9;&#9;c-0.7-0.7-0.8-1.9-0.1-2.6c0.7-0.7,1.7-0.8,2.5-0.2c3.1,2.7,8.3,7.8,8.1,10.9c0,0.9-0.5,1.7-1.2,2.2c-2.3,1.4-4.7,2.3-7.3,2.9&#10;&#9;&#9;C184.7,201.8,184.6,201.8,184.5,201.8z M189.7,196.6L189.7,196.6z"/>
	<path class="st5_relaxing-40 targetColor" d="M444.8,199.5c-0.3,108.2-88.1,195.8-196.3,195.8s-196-87.6-196.4-195.8c42.1,53.2,114.3,88.2,196.4,88.2&#10;&#9;&#9;S402.7,252.6,444.8,199.5z" style="fill: rgb(255, 148, 114);"/>
	<path class="st1_relaxing-40" d="M248.4,397.1c-109,0-197.9-88.6-198.2-197.6c0-1,0.8-1.8,1.8-1.8c0.6,0,1.1,0.3,1.4,0.7&#10;&#9;&#9;c43.4,54.8,116.3,87.5,194.9,87.5s151.5-32.7,194.9-87.5c0.6-0.8,1.8-0.9,2.6-0.3c0.4,0.4,0.7,0.9,0.7,1.4&#10;&#9;&#9;C446.3,308.4,357.4,397.1,248.4,397.1z M54,204.7c3.1,104.5,89.2,188.7,194.4,188.7s191.3-84.1,194.4-188.7&#10;&#9;&#9;c-44.5,53.2-116.7,84.8-194.4,84.8S98.4,257.9,54,204.7z"/>
	<path class="st1_relaxing-40" d="M248.4,289.5c-48.8,0-95.7-12.3-135.5-35.5c-39-22.8-68.7-54.3-85.7-91.3c-0.4-0.9,0-2,0.9-2.4&#10;&#9;&#9;c0.9-0.4,2,0,2.4,0.9l0,0c16.8,36.3,45.9,67.3,84.2,89.7c39.3,22.9,85.5,35,133.7,35s94.4-12.1,133.6-35&#10;&#9;&#9;c38.4-22.4,67.5-53.4,84.2-89.7c0.5-0.9,1.6-1.3,2.5-0.8c0.9,0.4,1.2,1.5,0.9,2.4c-17.1,37-46.7,68.5-85.7,91.3&#10;&#9;&#9;C344.1,277.2,297.2,289.5,248.4,289.5z"/>
	<path class="st1_relaxing-40" d="M155.8,196.3c-2,0-4-0.3-5.8-1c-0.9-0.4-1.4-1.4-1-2.4s1.4-1.4,2.4-1l0,0c0.4,0.2,9.7,3.6,15-5.6&#10;&#9;&#9;c0.5-0.9,1.6-1.2,2.5-0.8c0.9,0.5,1.2,1.6,0.8,2.5c0,0,0,0.1-0.1,0.1C165.8,194.5,160.3,196.3,155.8,196.3z"/>
	<path class="st1_relaxing-40" d="M202.4,182.8c-5.3,0-9.9-3.3-10.1-3.4c-0.8-0.6-1-1.7-0.4-2.6s1.7-1,2.6-0.4c0.1,0.1,5.3,3.7,9.9,2.5&#10;&#9;&#9;c2.3-0.6,4.2-2.4,5.6-5.4c0.4-0.9,1.4-1.4,2.4-1c0.9,0.4,1.4,1.4,1,2.4c0,0.1-0.1,0.1-0.1,0.2c-1.9,4-4.6,6.5-8,7.4&#10;&#9;&#9;C204.4,182.7,203.4,182.8,202.4,182.8z"/>
	<path class="st1_relaxing-40" d="M177.7,217.6c-0.4,0-0.7,0-0.7,0c-1-0.1-1.7-1-1.6-2c0.1-0.9,0.9-1.6,1.8-1.6c8.9-0.1,17.4-3.2,24.3-8.9&#10;&#9;&#9;c0.8-0.7,1.9-0.6,2.6,0.2c0.7,0.8,0.6,1.9-0.2,2.6l0,0C196.4,213.9,187.2,217.4,177.7,217.6z"/>
	<path class="st2_relaxing-40" d="M183.3,323.5l-28-40.2l12.8-7.4l10.5,1.6c-0.4-5.9-1.3-11.7-2.6-17.5c-2.3-10.2-8.2-14.3-8.2-14.3&#10;&#9;&#9;s-54.7,16.6-49.8,32.9s43.4,52.6,43.4,52.6s-0.6,11.4,9.7,14.1c0,0-9.7,7.6-3.1,10.3s28.3-4.5,28.5-14.8S183.3,323.5,183.3,323.5z"/>
	<path class="st1_relaxing-40" d="M171.7,358.1c-1.5,0-3-0.2-4.5-0.7c-2.5-1-3.2-2.7-3.4-3.9c-0.4-2.7,1.8-5.6,3.7-7.5c-6.3-3.2-8.1-9.9-8.1-14&#10;&#9;&#9;c-5.1-4.9-38.6-37.2-43.3-52.9c-5.2-17.6,45.2-33.4,51-35.2c0.5-0.2,1.1-0.1,1.6,0.2c0.3,0.2,6.5,4.6,9,15.4&#10;&#9;&#9;c1.4,5.8,2.3,11.8,2.7,17.8c0,0.5-0.2,1.1-0.6,1.5c-0.4,0.4-1,0.5-1.5,0.5l-9.8-1.5l-10.5,6l26.6,38.2c2.4,1.3,13.8,8.4,13.6,18.8&#10;&#9;&#9;c-0.1,4.1-2.8,7.9-7.8,11.2C184.8,355.8,177.1,358.1,171.7,358.1z M167.3,247.8c-20.5,6.3-50.7,19.9-47.6,30.3&#10;&#9;&#9;c4.7,15.7,42.5,51.4,42.9,51.8c0.4,0.4,0.6,0.9,0.6,1.5c0,0.4-0.4,9.9,8.3,12.2c0.7,0.2,1.2,0.7,1.3,1.4c0.1,0.7-0.1,1.4-0.7,1.8&#10;&#9;&#9;c-2.1,1.6-4.9,4.7-4.7,6.2c0.1,0.4,0.4,0.7,1.1,1c3.4,1.4,12.9-0.5,19.8-5c3.9-2.5,6.1-5.5,6.1-8.2c0.1-9.1-12-15.6-12.1-15.7&#10;&#9;&#9;c-0.3-0.1-0.5-0.3-0.6-0.6l-28-40.2c-0.6-0.8-0.4-2,0.4-2.5c0,0,0.1-0.1,0.1-0.1l12.8-7.4c0.4-0.2,0.8-0.3,1.2-0.2l8.2,1.2&#10;&#9;&#9;c-0.5-5-1.3-10-2.4-14.9C172.5,253.1,168.8,249.1,167.3,247.8z"/>
</g>
</svg>